<svg width="63" height="63" viewBox="0 0 63 63" fill="none" xmlns="http://www.w3.org/2000/svg">
<g clip-path="url(#clip0)">
<path d="M62.0146 12.9658C61.1696 11.9201 59.9135 11.3205 58.5689 11.3205H10.5496L10.1208 8.24732C9.81711 6.07112 7.93106 4.42993 5.73358 4.42993H1.96874C0.881503 4.42993 0 5.31143 0 6.39867C0 7.48591 0.881503 8.36741 1.96874 8.36741H5.73358C5.97771 8.36741 6.18738 8.54976 6.22097 8.79155L11.5352 46.8779C11.8389 49.0542 13.7249 50.6953 15.9224 50.6953H18.0571C17.8386 51.3115 17.7185 51.9739 17.7185 52.664C17.7185 55.9207 20.3681 58.5702 23.6247 58.5702C26.8814 58.5702 29.531 55.9207 29.531 52.664C29.531 51.9739 29.4109 51.3115 29.1923 50.6953H39.7133C39.4947 51.3115 39.3746 51.9739 39.3746 52.664C39.3746 55.9207 42.0242 58.5702 45.2809 58.5702C48.5375 58.5702 51.1871 55.9207 51.1871 52.664C51.1871 51.9739 51.067 51.3115 50.8485 50.6953H55.1247C56.2119 50.6953 57.0934 49.8138 57.0934 48.7265C57.0934 47.6393 56.2119 46.7578 55.1247 46.7578H15.9225C15.6784 46.7578 15.4687 46.5754 15.4352 46.3337L14.9449 42.8203H53.717C55.7913 42.8203 57.613 41.3481 58.0489 39.3187L62.9005 16.6786C63.1824 15.3643 62.8595 14.011 62.0146 12.9658ZM25.5936 52.664C25.5936 53.7495 24.7104 54.6328 23.6249 54.6328C22.5393 54.6328 21.6561 53.7495 21.6561 52.664C21.6561 51.5785 22.5393 50.6953 23.6249 50.6953C24.7104 50.6953 25.5936 51.5784 25.5936 52.664ZM47.2497 52.664C47.2497 53.7495 46.3665 54.6328 45.281 54.6328C44.1955 54.6328 43.3122 53.7495 43.3122 52.664C43.3122 51.5785 44.1955 50.6953 45.281 50.6953C46.3665 50.6953 47.2497 51.5784 47.2497 52.664ZM59.0505 15.8532L54.199 38.4928C54.1505 38.7187 53.9477 38.8827 53.717 38.8827H14.3954L11.099 15.2579H58.5687C58.7635 15.2579 58.8848 15.3573 58.9523 15.4407C59.0196 15.524 59.0912 15.6632 59.0505 15.8532Z" fill="#F5A8A8"/>
</g>
<defs>
<clipPath id="clip0">
<rect width="63" height="63" fill="white"/>
</clipPath>
</defs>
</svg>
