<?xml version="1.0" encoding="utf-8"?>
<!-- Generator: Adobe Illustrator 23.0.6, SVG Export Plug-In . SVG Version: 6.00 Build 0)  -->
<svg version="1.1" id="Capa_1" xmlns="http://www.w3.org/2000/svg" xmlns:xlink="http://www.w3.org/1999/xlink" x="0px" y="0px"
	 viewBox="0 0 63 55" style="enable-background:new 0 0 63 55;" xml:space="preserve">
<style type="text/css">
	.st0{fill-rule:evenodd;clip-rule:evenodd;fill:#FAFAFA;}
	.st1{fill-rule:evenodd;clip-rule:evenodd;fill:#F5A8A8;}
</style>
<rect x="-1" y="-0.6" class="st0" width="65.6" height="56.9"/>
<path class="st1" d="M58.6,9.2c1.4,0,2.6,0.6,3.4,1.6c0.9,1.1,1.1,2.3,0.9,3.6l-4.9,22c-0.4,2-2.3,3.4-4.3,3.4H15.1l0.5,3.4
	c0,0.2,0.3,0.4,0.5,0.4h39.1c1.1,0,2,0.8,2,1.9s-0.9,1.9-2,1.9H51c0.3,0.6,0.4,1.3,0.4,1.9c0,3.2-2.6,5.8-5.9,5.8
	c-3.3,0-5.9-2.5-5.9-5.8c0-0.6,0.1-1.3,0.4-1.9H29.4c0.3,0.6,0.4,1.3,0.4,1.9c0,3.2-2.6,5.8-5.9,5.8S18,52.5,18,49.2
	c0-0.6,0.1-1.3,0.4-1.9h-2.1c-2.1,0-4-1.6-4.4-3.7L6.3,6.7c0-0.2-0.3-0.4-0.5-0.4H2c-1.1,0-2-0.8-2-1.9s0.9-1.9,2-1.9h3.8
	c2.1,0,4,1.6,4.4,3.7l0.4,2.9L58.6,9.2L58.6,9.2z M23.7,51.3c1.1,0,2-0.8,2-1.9s-0.9-1.9-2-1.9s-2,0.8-2,1.9
	C21.8,50.4,22.6,51.3,23.7,51.3z M45.3,51.3c1.1,0,2-0.8,2-1.9s-0.9-1.9-2-1.9s-2,0.8-2,1.9C43.4,50.4,44.3,51.3,45.3,51.3z"/>
</svg>
