<?xml version="1.0" encoding="utf-8"?>
<!-- Generator: Adobe Illustrator 23.0.6, SVG Export Plug-In . SVG Version: 6.00 Build 0)  -->
<svg version="1.1" id="Capa_1" xmlns="http://www.w3.org/2000/svg" xmlns:xlink="http://www.w3.org/1999/xlink" x="0px" y="0px"
	 viewBox="0 0 61 55" style="enable-background:new 0 0 61 55;" xml:space="preserve">
<style type="text/css">
	.st0{fill:#FAFAFA;}
	.st1{fill-rule:evenodd;clip-rule:evenodd;fill:#F5A8A8;}
</style>
<rect y="0" class="st0" width="61" height="55"/>
<path class="st1" d="M51,10.7c1.4,1.4,2.5,3,3.3,4.9c0.8,1.9,1.2,4,1.2,6.1c0,2-0.4,4.1-1.2,6.2c-0.6,1.8-1.6,3.6-2.8,5.5
	c-1.9,3-4.5,6-7.7,9.1c-5.4,5.1-10.7,8.7-10.9,8.8l-1.4,0.9c-0.6,0.4-1.4,0.4-2,0l-1.4-0.9c-0.2-0.2-5.5-3.7-10.9-8.8
	c-3.2-3-5.9-6.1-7.7-9.1c-1.2-1.8-2.1-3.7-2.8-5.5c-0.8-2.1-1.2-4.2-1.2-6.2c0-2.1,0.4-4.2,1.2-6.1c0.8-1.8,1.9-3.5,3.3-4.9
	s3-2.5,4.9-3.3s3.9-1.2,5.9-1.2c2.9,0,5.6,0.8,8.1,2.3c0.6,0.4,1.1,0.7,1.6,1.2c0.5-0.5,1.1-0.8,1.6-1.2c2.4-1.5,5.2-2.3,8.1-2.3
	c2,0,4,0.4,5.9,1.2C48,8.2,49.6,9.3,51,10.7z"/>
</svg>
