<svg width="70" height="70" viewBox="0 0 70 70" fill="none" xmlns="http://www.w3.org/2000/svg">
<path d="M63.0957 19.3867C62.1794 17.2651 60.8582 15.3425 59.2061 13.7266C57.5527 12.1058 55.6033 10.8178 53.4639 9.93263C51.2454 9.0111 48.8661 8.53941 46.4639 8.54494C43.0938 8.54494 39.8057 9.46779 36.9482 11.211C36.2647 11.6279 35.6152 12.086 35 12.585C34.3848 12.086 33.7354 11.6279 33.0518 11.211C30.1943 9.46779 26.9063 8.54494 23.5361 8.54494C21.1094 8.54494 18.7578 9.00978 16.5361 9.93263C14.3896 10.8213 12.4551 12.0996 10.7939 13.7266C9.13963 15.3407 7.81811 17.2637 6.9043 19.3867C5.9541 21.5947 5.46875 23.9395 5.46875 26.3526C5.46875 28.6289 5.93359 31.001 6.85645 33.4141C7.62891 35.4307 8.73633 37.5225 10.1514 39.6348C12.3936 42.9775 15.4766 46.4639 19.3047 49.9981C25.6484 55.8564 31.9307 59.9033 32.1973 60.0674L33.8174 61.1064C34.5352 61.5645 35.458 61.5645 36.1758 61.1064L37.7959 60.0674C38.0625 59.8965 44.3379 55.8564 50.6885 49.9981C54.5166 46.4639 57.5996 42.9775 59.8418 39.6348C61.2568 37.5225 62.3711 35.4307 63.1367 33.4141C64.0596 31.001 64.5244 28.6289 64.5244 26.3526C64.5313 23.9395 64.0459 21.5947 63.0957 19.3867ZM35 55.6992C35 55.6992 10.6641 40.1065 10.6641 26.3526C10.6641 19.3867 16.4268 13.7403 23.5361 13.7403C28.5332 13.7403 32.8672 16.5293 35 20.6035C37.1328 16.5293 41.4668 13.7403 46.4639 13.7403C53.5732 13.7403 59.3359 19.3867 59.3359 26.3526C59.3359 40.1065 35 55.6992 35 55.6992Z" fill="#F5A8A8"/>
</svg>
