<svg width="214" height="218" viewBox="0 0 214 218" fill="none" xmlns="http://www.w3.org/2000/svg">
<g clip-path="url(#clip0)">
<path d="M0.494457 148.771C1.22172 150.148 2.63822 151.009 4.17969 151.009H25.0781V212.888C25.0781 215.228 26.9494 217.126 29.2578 217.126H184.742C187.051 217.126 188.922 215.228 188.922 212.888V151.009H209.82C211.362 151.009 212.778 150.148 213.506 148.771C214.233 147.392 214.153 145.72 213.298 144.42L188.22 106.275C187.445 105.096 186.139 104.388 184.742 104.388H168.859C166.551 104.388 164.68 106.285 164.68 108.626C164.68 110.967 166.551 112.864 168.859 112.864H182.505L202.011 142.532H134.315L114.81 112.864H131.242C133.551 112.864 135.422 110.967 135.422 108.626C135.422 106.285 133.551 104.388 131.242 104.388C126.469 104.388 33.8772 104.388 29.2578 104.388C27.8601 104.388 26.5552 105.096 25.7803 106.275L0.702188 144.42C-0.152976 145.72 -0.232808 147.392 0.494457 148.771ZM33.4375 151.009H81.9219C83.3196 151.009 84.6245 150.301 85.3994 149.121L102.82 122.624V208.649H33.4375V151.009ZM128.601 149.121C129.376 150.301 130.681 151.009 132.078 151.009H180.562V208.649H111.18V122.624L128.601 149.121ZM31.4948 112.864H99.1903L79.6849 142.532H11.9894L31.4948 112.864Z" fill="#F9F9F9"/>
<path d="M81.9219 10.7344C78.5079 5.64676 72.6141 0.125977 63.1133 0.125977C49.7195 0.125977 40.125 11.0713 40.125 24.2715C40.125 38.927 51.8219 48.5526 69.5278 63.1221C72.6304 65.6748 75.8383 68.3148 79.2465 71.1943C80.0214 71.8491 80.9714 72.1763 81.9219 72.1763C82.8723 72.1763 83.8224 71.8491 84.5973 71.1943C88.0054 68.3148 91.2133 65.6748 94.3159 63.1221C112.022 48.5526 123.719 38.927 123.719 24.2715C123.719 11.0607 114.114 0.125977 100.73 0.125977C91.2296 0.125977 85.3363 5.64676 81.9219 10.7344ZM115.359 24.2715C115.359 34.8892 104.893 43.5027 89.0487 56.54C86.7461 58.4346 84.3858 60.377 81.9219 62.4351C79.458 60.3774 77.0977 58.435 74.7951 56.54C58.9516 43.5027 48.4844 34.8896 48.4844 24.2715C48.4844 15.3389 54.7736 8.60254 63.1133 8.60254C74.0252 8.60254 77.7564 20.9224 77.9056 21.431C78.421 23.2462 80.059 24.4961 81.9219 24.4961C83.7848 24.4961 85.4228 23.2458 85.9381 21.431C85.9749 21.3025 89.709 8.60254 100.73 8.60254C109.07 8.60254 115.359 15.3389 115.359 24.2715Z" fill="#F9F9F9"/>
<path d="M157.156 84.8916C158.139 84.8916 159.121 84.5419 159.909 83.8426C162.179 81.8277 164.319 79.9786 166.388 78.1905C178.014 68.1436 186.414 60.8851 186.414 50.0868C186.414 39.8959 179.07 31.9131 169.695 31.9131C163.729 31.9131 159.729 34.9897 157.156 38.2849C154.583 34.9897 150.584 31.9131 144.617 31.9131C135.242 31.9131 127.898 39.8959 127.898 50.0868C127.898 60.8851 136.298 68.1436 147.924 78.1905C149.994 79.9786 152.133 81.8277 154.404 83.8426C155.191 84.5419 156.174 84.8916 157.156 84.8916ZM136.258 50.0868C136.258 45.3857 139.187 40.3896 144.617 40.3896C150.778 40.3896 153.027 48.0516 153.131 48.417C153.635 50.2479 155.277 51.5257 157.153 51.5257C159.036 51.5257 160.683 50.2606 161.181 48.4195C161.274 48.0919 163.518 40.3896 169.695 40.3896C175.125 40.3896 178.055 45.3857 178.055 50.0868C178.055 56.9715 171.623 62.53 160.966 71.7385C159.727 72.8095 158.462 73.9022 157.156 75.0423C155.85 73.9022 154.586 72.8095 153.346 71.7385C142.69 62.53 136.258 56.9715 136.258 50.0868Z" fill="#F9F9F9"/>
<path d="M150.051 112.864C152.359 112.864 154.23 110.967 154.23 108.626C154.23 106.285 152.359 104.388 150.051 104.388C147.742 104.388 145.871 106.285 145.871 108.626C145.871 110.967 147.742 112.864 150.051 112.864Z" fill="#F9F9F9"/>
</g>
<defs>
<clipPath id="clip0">
<rect width="214" height="217" fill="white" transform="translate(0 0.125977)"/>
</clipPath>
</defs>
</svg>
