<svg width="50" height="50" viewBox="0 0 50 50" fill="none" xmlns="http://www.w3.org/2000/svg">
<path d="M36.0792 0.160417C38.6167 0.277083 40.3708 0.65 41.9917 1.27917C43.5285 1.85377 44.9198 2.75998 46.0667 3.93333C47.24 5.08018 48.1462 6.4715 48.7208 8.00833C49.35 9.63125 49.7229 11.3833 49.8396 13.9208C49.9833 17.0667 50 18.175 50 25C50 31.825 49.9833 32.9333 49.8396 36.0792C49.7229 38.6167 49.35 40.3708 48.7208 41.9937C48.146 43.5298 47.2398 44.9204 46.0667 46.0667C44.9199 47.2401 43.5285 48.1463 41.9917 48.7208C40.3687 49.35 38.6167 49.7229 36.0792 49.8396C32.9333 49.9833 31.8271 50 25 50C18.1729 50 17.0646 49.9833 13.9208 49.8396C11.3833 49.7229 9.62917 49.35 8.00625 48.7208C6.47014 48.146 5.07954 47.2398 3.93333 46.0667C2.75998 44.9198 1.85377 43.5285 1.27917 41.9917C0.65 40.3687 0.277083 38.6167 0.160417 36.0792C0.0166667 32.9375 0 31.8292 0 25C0 18.1729 0.0166667 17.0625 0.160417 13.9208C0.277083 11.3833 0.65 9.62917 1.27917 8.00833C1.85377 6.4715 2.75998 5.08018 3.93333 3.93333C5.07958 2.76024 6.47017 1.85404 8.00625 1.27917C9.63125 0.65 11.3833 0.277083 13.9208 0.160417C17.0625 0.0166667 18.1708 0 25 0C31.8271 0 32.9375 0.0166667 36.0792 0.160417ZM25 5.55625C18.25 5.55625 17.2167 5.57083 14.1729 5.71042C12.2417 5.79792 11.0833 6.04375 10.0187 6.45833C9.1125 6.8125 8.53542 7.1875 7.86042 7.86042C7.18542 8.53542 6.81042 9.1125 6.45833 10.0187C6.04583 11.0812 5.79792 12.2417 5.71042 14.1729C5.57083 17.2167 5.55625 18.25 5.55625 25C5.55625 31.75 5.57083 32.7833 5.71042 35.8271C5.79792 37.7583 6.04375 38.9167 6.45833 39.9792C6.8125 40.8875 7.1875 41.4646 7.86042 42.1396C8.53542 42.8146 9.1125 43.1896 10.0187 43.5417C11.0812 43.9542 12.2417 44.2021 14.1729 44.2896C17.2188 44.4292 18.2521 44.4437 25 44.4437C31.75 44.4437 32.7812 44.4292 35.8271 44.2896C37.7583 44.2021 38.9167 43.9562 39.9812 43.5417C40.8875 43.1875 41.4646 42.8125 42.1396 42.1396C42.8146 41.4646 43.1896 40.8875 43.5417 39.9812C43.9542 38.9187 44.2021 37.7583 44.2896 35.8271C44.4292 32.7812 44.4437 31.7479 44.4437 25C44.4437 18.2521 44.4292 17.2188 44.2896 14.1729C44.2021 12.2417 43.9562 11.0833 43.5417 10.0208C43.2471 9.20225 42.7672 8.46286 42.1396 7.86042C41.5372 7.23273 40.7978 6.75287 39.9792 6.45833C38.9167 6.04583 37.7562 5.79792 35.825 5.71042C32.7812 5.57083 31.7479 5.55625 24.9979 5.55625H25ZM25 37.9625C21.5621 37.9625 18.2651 36.5968 15.8341 34.1659C13.4032 31.7349 12.0375 28.4379 12.0375 25C12.0375 21.5621 13.4032 18.2651 15.8341 15.8341C18.2651 13.4032 21.5621 12.0375 25 12.0375C28.4379 12.0375 31.7349 13.4032 34.1659 15.8341C36.5968 18.2651 37.9625 21.5621 37.9625 25C37.9625 28.4379 36.5968 31.7349 34.1659 34.1659C31.7349 36.5968 28.4379 37.9625 25 37.9625ZM25 32.4083C26.9648 32.4083 28.8491 31.6278 30.2385 30.2385C31.6278 28.8491 32.4083 26.9648 32.4083 25C32.4083 23.0352 31.6278 21.1508 30.2385 19.7615C28.8491 18.3722 26.9648 17.5917 25 17.5917C23.0352 17.5917 21.1508 18.3722 19.7615 19.7615C18.3722 21.1508 17.5917 23.0352 17.5917 25C17.5917 26.9648 18.3722 28.8491 19.7615 30.2385C21.1508 31.6278 23.0352 32.4083 25 32.4083ZM37.9625 14.8146C37.2257 14.8146 36.5191 14.5219 35.9981 14.0009C35.4771 13.4799 35.1844 12.7733 35.1844 12.0365C35.1844 11.2997 35.4771 10.593 35.9981 10.072C36.5191 9.55103 37.2257 9.25833 37.9625 9.25833C38.6993 9.25833 39.4059 9.55103 39.9269 10.072C40.4479 10.593 40.7406 11.2997 40.7406 12.0365C40.7406 12.7733 40.4479 13.4799 39.9269 14.0009C39.4059 14.5219 38.6993 14.8146 37.9625 14.8146Z" fill="white"/>
</svg>
