<?xml version="1.0" encoding="utf-8"?>
<!-- Generator: Adobe Illustrator 16.0.0, SVG Export Plug-In . SVG Version: 6.00 Build 0)  -->
<!DOCTYPE svg PUBLIC "-//W3C//DTD SVG 1.1//EN" "http://www.w3.org/Graphics/SVG/1.1/DTD/svg11.dtd">
<svg version="1.1" id="Capa_1" xmlns="http://www.w3.org/2000/svg" xmlns:xlink="http://www.w3.org/1999/xlink" x="0px" y="0px"
	 width="1420px" height="963.693px" viewBox="0 0 1420 963.693" enable-background="new 0 0 1420 963.693" xml:space="preserve">
<g>
	<path fill="#EDC1BE" d="M272.226,475.215c0,0-134.988,152.987-9.006,278.98c0.51,0.51-9.309,27.582-9.748,29.348
		c-5.039,20.305-8.745,42.52-4.678,63.332C258.042,894.16,311.073,913.6,354.061,910c44.461-3.723,71.857-23.113,95.238-58.941
		c2.016-3.09,28.832-40.674,23.917-44.36c0,0.001,53.995,56.998,128.991-4.499c0,0,85.498,65.996,140.995-3
		c0,0,41.99,68.985,110.993,15.002c0.009-0.006,0.018-0.012,0.042-0.025c14.562-8.881,38.644,13.37,52.375,17.562
		c69.806,21.306,124.699-50.087,148.367-105.851c12.208-28.764,53.55-142.774,13.706-165.176
		c0.021,0.012,179.312,47.289,227.987-146.986c12.598-50.28,19.051-103.988,7.098-154.935
		c-15.974-68.087-71.321-105.641-133.776-126.533c-75.671-25.312-154.686-5.258-221.374,34.581
		c-15.274,9.125-63.634,45.784-46.979,70.918c-54.576-82.36-200.285-75.59-282.935-28.027c0,0-68.997-68.997-143.993-1.5
		c0,0-62.997-50.998-142.48-1.506c1.599-0.762-39.702-37.33-42.812-39.126c-99.992-57.723-206.993,25.583-226.228,125.227
		c-9.891,51.234-7.668,108.254,31.338,147.043C134.342,479.457,219.616,501.52,272.226,475.215z"/>
	<path fill="#FAFAFA" d="M298.226,437.215c0,0-134.988,152.987-9.006,278.98c0.51,0.51-9.309,27.582-9.748,29.348
		c-5.039,20.305-8.745,42.52-4.678,63.332C284.042,856.16,337.073,875.6,380.061,872c44.461-3.723,71.857-23.113,95.238-58.941
		c2.016-3.09,28.832-40.674,23.917-44.36c0,0.001,53.995,56.998,128.991-4.499c0,0,85.498,65.996,140.995-3
		c0,0,41.99,68.985,110.993,15.002c0.009-0.006,0.018-0.012,0.042-0.025c14.562-8.881,38.644,13.37,52.375,17.562
		c69.806,21.306,124.699-50.087,148.367-105.851c12.208-28.764,53.55-142.774,13.706-165.176
		c0.021,0.012,179.312,47.289,227.987-146.986c12.598-50.28,19.051-103.988,7.098-154.935
		c-15.974-68.087-71.321-105.641-133.776-126.533c-75.671-25.312-154.686-5.258-221.374,34.581
		c-15.274,9.125-63.634,45.784-46.979,70.918c-54.576-82.36-200.285-75.59-282.935-28.027c0,0-68.997-68.997-143.993-1.5
		c0,0-62.997-50.998-142.48-1.506c1.599-0.762-39.702-37.33-42.812-39.126c-99.992-57.723-206.993,25.583-226.228,125.227
		c-9.891,51.234-7.668,108.254,31.338,147.043C160.342,441.457,245.616,463.519,298.226,437.215z"/>
	<g>
		<g>
			<path fill="#EDC1BE" d="M324.716,197.231c-5.258-9.176-13.358-16.552-24.289-22.123c-10.937-5.569-24.551-8.354-40.843-8.354
				c-16.917,0-33.834,3.867-50.745,11.604c-16.917,7.735-30.788,17.845-41.617,30.322c-10.83,12.483-16.244,25.325-16.244,38.524
				c0,10.727,2.73,18.409,8.198,23.051c5.464,4.642,13.77,6.962,24.91,6.962c0-0.411-0.726-2.113-2.168-5.105
				c-1.445-2.988-2.165-8.301-2.165-15.935c0-23.72,7.063-42.184,21.195-55.387c6.241-5.831,13.563-10.279,21.959-13.535
				L178.208,399h44.557l18.873-88h1.549c17.738,0,33.417-4.254,47.031-12.404c13.614-8.148,24.081-18.706,31.406-31.498
				c7.319-12.787,10.983-25.931,10.983-39.341C332.606,216.616,329.977,206.414,324.716,197.231z M291.145,257.104
				c-4.747,11.556-11.293,21.249-19.647,29.086c-8.354,7.842-17.481,12.173-27.384,12.995l23.015-117.727
				c9.231,1.248,16.415,5.007,21.542,11.286c6.392,7.842,9.592,17.948,9.592,30.324
				C298.262,234.207,295.889,245.556,291.145,257.104z"/>
			<path fill="#EDC1BE" d="M335.083,388.764c-8.46-7.938-12.687-20.369-12.687-37.286c0-14.233,2.784-29.906,8.354-47.031
				c5.571-17.121,14.645-31.918,27.23-44.401c12.58-12.479,28.567-18.72,47.958-18.72c22.69,0,34.036,9.9,34.036,29.705
				c0,11.553-3.301,22.175-9.9,31.87c-6.606,9.697-15.371,17.482-26.301,23.361c-10.937,5.877-22.587,9.233-34.965,10.055
				c-0.416,6.188-0.617,10.318-0.617,12.376c0,10.11,1.75,16.969,5.258,20.577c3.506,3.611,9.176,5.414,17.018,5.414
				c11.14,0,20.68-2.577,28.622-7.735c7.938-5.154,16.655-12.996,26.146-23.517h10.521c-22.897,38.166-51.264,57.244-85.092,57.244
				C355.397,400.676,343.537,396.706,335.083,388.764z M393.099,313.419c6.908-4.95,12.477-11.241,16.708-18.875
				c4.226-7.627,6.343-15.673,6.343-24.133c0-8.457-2.581-12.687-7.735-12.687c-7.426,0-14.697,6.499-21.814,19.494
				c-7.116,12.995-12.221,27.745-15.316,44.247C378.914,321.053,386.185,318.369,393.099,313.419z"/>
			<path fill="#EDC1BE" d="M452.965,388.608c-7.835-8.045-11.757-20.625-11.757-37.75c0-15.262,3.046-31.3,9.128-48.114
				c6.081-16.81,15.161-31.043,27.229-42.7c12.067-11.652,26.456-17.482,43.164-17.482c8.457,0,14.745,1.446,18.875,4.331
				c4.123,2.892,6.188,6.707,6.188,11.449v2.166l3.403-16.399h44.557l-22.278,105.202c-0.827,3.096-1.238,6.396-1.238,9.902
				c0,8.87,4.226,13.304,12.687,13.304c5.772,0,10.777-2.677,15.008-8.045c4.224-5.361,7.579-12.376,10.055-21.041h12.996
				c-7.634,22.279-17.07,37.393-28.312,45.332c-11.245,7.942-22.539,11.912-33.883,11.912c-8.662,0-15.625-2.423-20.885-7.271
				c-5.261-4.845-8.408-11.915-9.437-21.196c-5.987,8.46-12.639,15.316-19.958,20.577c-7.325,5.259-16.042,7.89-26.146,7.89
				C470.602,400.676,460.803,396.653,452.965,388.608z M517.789,363.39c5.053-4.843,8.509-11.497,10.366-19.958l14.852-69.928
				c0-2.678-1.035-5.307-3.093-7.89c-2.065-2.577-5.261-3.868-9.594-3.868c-8.253,0-15.677,4.797-22.277,14.389
				c-6.605,9.592-11.759,21.146-15.471,34.655c-3.714,13.511-5.569,25.426-5.569,35.737c0,10.317,1.492,16.917,4.486,19.803
				c2.988,2.891,6.652,4.333,10.983,4.333C507.626,370.663,512.731,368.239,517.789,363.39z"/>
			<path fill="#EDC1BE" d="M616.646,388.764c-8.46-7.938-12.687-20.369-12.687-37.286c0-14.233,2.839-29.906,8.509-47.031
				c5.672-17.121,14.746-31.918,27.229-44.401c12.479-12.479,28.311-18.72,47.497-18.72c12.376,0,21.194,2.684,26.455,8.045
				c5.261,5.366,7.89,12.173,7.89,20.421c0,7.223-1.547,12.792-4.639,16.708c-3.096,3.922-7.018,5.88-11.76,5.88
				c-3.51,0-7.115-1.238-10.83-3.712c2.476-6.807,3.714-12.89,3.714-18.256c0-3.916-0.726-7.011-2.166-9.283
				c-1.446-2.266-3.614-3.404-6.499-3.404c-6.188,0-12.376,5.058-18.564,15.161c-6.19,10.11-11.248,22.386-15.163,36.822
				c-3.92,14.441-5.878,27.437-5.878,38.986c0,10.11,1.75,16.969,5.259,20.577c3.506,3.611,9.176,5.414,17.018,5.414
				c11.14,0,20.679-2.577,28.622-7.735c7.938-5.154,16.655-12.996,26.146-23.517h10.521c-22.897,38.166-51.264,57.244-85.092,57.244
				C636.96,400.676,625.1,396.706,616.646,388.764z"/>
			<path fill="#EDC1BE" d="M809.099,390.773c-4.95-6.599-7.427-14.953-7.427-25.062c0-4.331,0.515-9.229,1.549-14.697
				c1.028-5.462,2.111-10.777,3.248-15.935c1.131-5.154,1.906-8.457,2.321-9.902c1.649-7.216,3.196-14.334,4.642-21.349
				c1.439-7.011,2.166-12.687,2.166-17.018c0-10.521-3.715-15.78-11.141-15.78c-4.95,0-9.437,2.272-13.459,6.807
				c-4.023,4.539-7.271,10.519-9.747,17.945l-21.968,103.037h-44.557l44.865-210.405l45.795-6.188l-16.709,77.664
				c10.312-11.342,22.379-17.018,36.203-17.018c10.519,0,18.873,2.891,25.061,8.664c6.189,5.777,9.283,14.542,9.283,26.301
				c0,5.984-0.725,12.636-2.166,19.958c-1.445,7.324-3.51,16.244-6.188,26.765c-1.654,6.396-3.148,12.636-4.486,18.72
				c-1.346,6.085-2.013,10.882-2.013,14.386c0,4.129,0.93,7.326,2.784,9.592c1.857,2.272,5.053,3.406,9.594,3.406
				c4.951,0,8.354-0.619,10.211-1.857c-1.238,10.52-5.004,18.464-11.295,23.825c-6.293,5.365-13.875,8.045-22.742,8.045
				C821.988,400.676,814.051,397.377,809.099,390.773z"/>
			<path fill="#EDC1BE" d="M338.017,803.882c-11.489-9.682-17.232-22.399-17.232-38.143c0-9.813,2.324-18.848,6.972-27.106
				c4.646-8.258,10.969-14.773,18.974-19.554c7.999-4.774,16.777-7.164,26.331-7.164c9.809,0,17.747,2.456,23.815,7.358
				c6.062,4.906,9.1,11.363,9.1,19.359c0,6.197-1.423,11.098-4.259,14.717c-2.324-3.1-5.488-5.555-9.488-7.359
				c-4.005-1.809-8.199-2.709-12.584-2.709c-7.744,0-14.073,2.576-18.976,7.744c-4.906,5.16-7.356,11.87-7.356,20.137
				c0,8.259,2.384,14.969,7.164,20.133c4.774,5.164,10.774,7.748,18.004,7.748c9.034,0,16.778-4.008,23.236-12.007
				c6.449-8.004,11.355-19.88,14.713-35.622l19.362-85.578h-1.55c-6.969,9.813-15.427,17.298-25.362,22.458
				c-9.942,5.168-20.851,7.745-32.721,7.745c-14.976,0-28.14-4.001-39.498-12.004c-11.363-8-20.076-19.423-26.137-34.271
				c-6.069-14.841-9.1-32.072-9.1-51.694c0-28.396,6.195-54.271,18.587-77.64c12.39-23.36,29.428-41.754,51.113-55.178
				c21.684-13.422,45.56-20.137,71.636-20.137c21.938,0,39.305,4.779,52.083,14.328c12.779,9.553,19.168,22.592,19.168,39.11
				c0,11.103-2.71,20.008-8.133,26.718c-5.42,6.717-12.523,10.068-21.297,10.068c-4.906,0-9.486-1.029-13.745-3.1
				c-4.26-2.061-7.812-5.033-10.649-8.904c4.646-3.1,8.58-8.064,11.81-14.908c3.225-6.838,4.84-13.747,4.84-20.717
				c0-7.744-2.261-13.748-6.775-18.007c-4.52-4.259-10.909-6.389-19.167-6.389c-14.977,0-29.43,6.649-43.369,19.943
				c-13.942,13.297-25.171,30.659-33.69,52.083c-8.519,21.432-12.778,43.889-12.778,67.377c0,19.361,3.099,34.144,9.293,44.338
				c6.195,10.201,15.103,15.297,26.717,15.297c13.942,0,26.266-7.358,36.98-22.072c10.709-14.717,19.296-36.14,25.751-64.28
				l45.694,0.386l-28.268,130.11c-8.267,38.462-19.942,66.729-35.044,84.8c-15.103,18.068-34.656,27.107-58.667,27.107
				C364.669,818.402,349.5,813.562,338.017,803.882z"/>
			<path fill="#EDC1BE" d="M526.206,728.953c-7.616-7.744-11.423-19.361-11.423-34.851c0-6.449,1.034-14.843,3.099-25.171
				l41.434-194l57.308-7.744l-44.53,209.102c-1.034,3.874-1.549,8.005-1.549,12.393c0,5.165,1.221,8.845,3.679,11.034
				c2.45,2.196,6.515,3.294,12.198,3.294c7.484,0,14.454-3.159,20.909-9.488c6.449-6.323,11.098-14.522,13.941-24.591h16.263
				c-9.554,27.882-21.817,46.797-36.786,56.731c-14.976,9.939-29.819,14.907-44.533,14.907
				C543.826,740.57,533.818,736.697,526.206,728.953z"/>
			<path fill="#EDC1BE" d="M799.583,728.953c-7.616-7.744-11.423-19.361-11.423-34.851c0-6.449,1.034-14.843,3.099-25.171
				l26.331-124.299h55.762L845.471,676.29c-0.775,3.099-1.164,6.329-1.164,9.68c0,11.362,3.874,17.041,11.618,17.041
				c7.224,0,13.419-3.033,18.587-9.103c5.16-6.061,9.294-14.389,12.393-24.977l26.331-124.299h55.76L941.113,676.29
				c-1.294,6.455-1.935,11.103-1.935,13.939c0,8.519,4.388,12.781,13.167,12.781c11.869,0,22.907-7.487,33.106-22.461
				c10.194-14.968,18.394-32.78,24.591-53.438c6.195-20.649,9.294-38.461,9.294-53.438c-0.523,1.295-2.198,2.264-5.035,2.905
				c-2.844,0.647-5.294,0.969-7.357,0.969c-4.394,0-7.811-2.063-10.263-6.197c-2.455-4.126-3.677-8.645-3.677-13.55
				c0-6.198,1.996-11.232,6.001-15.104c3.999-3.873,10.002-5.809,18.006-5.809c8.52,0,14.715,3.165,18.588,9.488
				c3.871,6.328,5.809,14.393,5.809,24.201c0,23.233-4.007,48.08-12.006,74.541c-8.005,26.465-20.268,48.983-36.786,67.57
				c-16.522,18.588-37.046,27.881-61.567,27.881c-12.652,0-22.98-2.709-30.979-8.133c-8.005-5.42-13.165-13.553-15.489-24.396
				c-14.461,21.686-32.786,32.528-54.986,32.528C817.204,740.57,807.195,736.697,799.583,728.953z"/>
			<path fill="#EDC1BE" d="M835.405,580.645c-9.039,6.457-19.107,11.945-30.202,16.457c-11.104,4.52-20.168,6.777-28.688,6.777
				c-2.068,0-3.516-0.127-3.516-0.388v-0.387c0-41.3-17.267-61.956-50.308-61.956c-24.27,0-44.775,7.81-60.781,23.428
				c-16.009,15.621-27.812,34.141-35.036,55.566c-7.225,21.432-10.934,40.92-10.934,58.472c0,21.169,5.499,36.66,16.602,46.466
				c11.098,9.816,26.178,14.717,45.285,14.717c15.743,0,30.319-4.775,43.744-14.328c13.418-9.549,24.39-23.102,32.909-40.659
				c8.519-17.553,13.805-38.075,15.874-61.568c14.193-2.323,27.297-6.258,39.3-11.812c12.004-5.549,21.745-12.324,29.234-20.328
				L835.405,580.645z M728.145,665.256c-4.648,12.264-10.069,21.943-16.264,29.041c-6.198,7.104-12.393,10.648-18.587,10.648
				c-7.492,0-12.652-2.129-15.489-6.389c-2.844-4.26-4.259-12.587-4.259-24.977c0-13.167,2.45-28.396,7.355-45.693
				c3.052-10.771,6.71-20.592,10.968-29.463c16.508,38.059,46.343,25.979,46.343,25.979
				C736.143,639.376,732.789,652.997,728.145,665.256z M708.863,572.537c5.285-5.168,10.68-7.768,16.182-7.768
				c5.163,0,8.773,1.615,10.843,4.84c2.064,3.23,3.351,9.1,3.874,17.619C722.424,592.393,712.663,579.377,708.863,572.537z"/>
		</g>
		<g>
			<path fill="#EDC1BE" d="M1223.729,179.022c0,0-74.646-56-150.199,19.474l-2.57-7.001c55.75-28.973,48.1-69.768,48.1-69.768
				c-45.938,23.27-51.057,50.369-50.541,63.124l-9.701-26.399c11.765-17.512-8.692-14.497-8.692-14.497
				c-22.078,25.383-4.073,25.188-4.073,25.188l3.964,7.17c-10.739-9.681-31.917-19.681-71.95-12.326
				c0,0,18.477,36.791,79.791,26.507l2.442,4.417l6.822,1.849c-22.128-4.917-95.614-12.034-125.868,99.71
				c0,0-32.239,119.089,134.321,163.393c0,0,81.981,16.81,110.069,1.606C1185.643,461.469,1358.52,299.724,1223.729,179.022z"/>
			<g>
				<path fill="#FAFAFA" d="M1198.256,205.533c0,0,2.33,21.645,27.733,27.919c0,0,8.416,3.944,0,8.23
					c0,0-18.788,2.329-27.733,24.331c0,0-0.899,7.873-3.943,7.329c0,0-4.473,1.071-4.83-5.016c0,0-4.114-20.217-26.303-26.491
					c0,0-6.087-0.357-5.016-5.186c0,0-1.787-2.5,10.014-5.186c0,0,16.29-5.73,21.646-25.946c0,0,0-6.088,6.088-4.303
					C1195.928,201.249,1197.254,201.266,1198.256,205.533z"/>
				<path fill="#FAFAFA" d="M1186.49,282.269c0,0,1.361,12.685,16.239,16.357c0,0,4.931,2.312,0,4.829
					c0,0-11.002,1.359-16.239,14.249c0,0-0.526,4.607-2.312,4.301c0,0-2.617,0.629-2.822-2.942c0,0-2.414-11.85-15.404-15.506
					c0,0-3.57-0.205-2.941-3.044c0,0-1.055-1.462,5.865-3.043c0,0,9.539-3.349,12.686-15.201c0,0,0-3.57,3.57-2.516
					C1185.131,279.752,1185.896,279.769,1186.49,282.269z"/>
				<path fill="#FAFAFA" d="M1140.276,241.835c0,0,1.667,15.592,19.962,20.099c0,0,6.053,2.839,0,5.917
					c0,0-13.518,1.666-19.962,17.514c0,0-0.646,5.662-2.841,5.288c0,0-3.213,0.765-3.485-3.604c0,0-2.958-14.556-18.94-19.061
					c0,0-4.387-0.255-3.605-3.74c0,0-1.292-1.802,7.209-3.742c0,0,11.717-4.114,15.593-18.669c0,0,0-4.387,4.387-3.095
					C1138.609,238.757,1139.562,238.775,1140.276,241.835z"/>
			</g>
		</g>
	</g>
</g>
</svg>
