<?xml version="1.0" encoding="utf-8"?>
<!-- Generator: Adobe Illustrator 23.0.6, SVG Export Plug-In . SVG Version: 6.00 Build 0)  -->
<svg version="1.1" id="Capa_1" xmlns="http://www.w3.org/2000/svg" xmlns:xlink="http://www.w3.org/1999/xlink" x="0px" y="0px"
	 viewBox="0 0 235 164.3" style="enable-background:new 0 0 235 164.3;" xml:space="preserve">
<style type="text/css">
	.st0{fill:#EDC1BE;}
	.st1{fill:#FAFAFA;}
</style>
<path class="st0" d="M43.3,76c0,0-23.7,27.2-1.6,49.6c0.1,0.1-1.6,4.9-1.7,5.2c-0.9,3.6-1.5,7.6-0.8,11.3
	c1.6,8.4,10.9,11.9,18.4,11.2c7.8-0.7,12.6-4.1,16.7-10.5c0.4-0.5,5.1-7.2,4.2-7.9c0,0,9.5,10.1,22.6-0.8c0,0,15,11.7,24.7-0.5
	c0,0,7.4,12.3,19.4,2.7c0,0,0,0,0,0c2.6-1.6,6.8,2.4,9.2,3.1c12.2,3.8,21.9-8.9,26-18.8c2.1-5.1,9.4-25.4,2.4-29.4
	c0,0,31.4,8.4,39.9-26.1c2.2-8.9,3.3-18.5,1.2-27.6c-2.8-12.1-12.5-18.8-23.4-22.5c-13.3-4.5-27.1-0.9-38.8,6.2
	c-2.7,1.6-11.2,8.1-8.2,12.6c-9.6-14.6-35.1-13.4-49.6-5c0,0-12.1-12.3-25.2-0.3c0,0-11-9.1-25-0.3c0.3-0.1-7-6.6-7.5-7
	C28.8,11.1,10,25.9,6.7,43.6c-1.7,9.1-1.3,19.3,5.5,26.2C19.1,76.8,34.1,80.7,43.3,76z"/>
<path class="st1" d="M47.9,69.3c0,0-23.7,27.2-1.6,49.6c0.1,0.1-1.6,4.9-1.7,5.2c-0.9,3.6-1.5,7.6-0.8,11.3
	c1.6,8.4,10.9,11.9,18.4,11.2c7.8-0.7,12.6-4.1,16.7-10.5c0.4-0.5,5.1-7.2,4.2-7.9c0,0,9.5,10.1,22.6-0.8c0,0,15,11.7,24.7-0.5
	c0,0,7.4,12.3,19.4,2.7c0,0,0,0,0,0c2.6-1.6,6.8,2.4,9.2,3.1c12.2,3.8,21.9-8.9,26-18.8c2.1-5.1,9.4-25.4,2.4-29.4
	c0,0,31.4,8.4,39.9-26.1c2.2-8.9,3.3-18.5,1.2-27.6c-2.8-12.1-12.5-18.8-23.4-22.5c-13.3-4.5-27.1-0.9-38.8,6.2
	c-2.7,1.6-11.2,8.1-8.2,12.6c-9.6-14.6-35.1-13.4-49.6-5c0,0-12.1-12.3-25.2-0.3c0,0-11-9.1-25-0.3c0.3-0.1-7-6.6-7.5-7
	C33.3,4.3,14.6,19.1,11.2,36.8C9.5,45.9,9.9,56.1,16.7,63C23.7,70,38.6,74,47.9,69.3z"/>
<path class="st0" d="M52.5,26.6c-0.9-1.6-2.3-2.9-4.3-3.9c-1.9-1-4.3-1.5-7.2-1.5c-3,0-5.9,0.7-8.9,2.1c-3,1.4-5.4,3.2-7.3,5.4
	c-1.9,2.2-2.8,4.5-2.8,6.9c0,1.9,0.5,3.3,1.4,4.1c1,0.8,2.4,1.2,4.4,1.2c0-0.1-0.1-0.4-0.4-0.9c-0.3-0.5-0.4-1.5-0.4-2.8
	c0-4.2,1.2-7.5,3.7-9.9c1.1-1,2.4-1.8,3.8-2.4l-7.8,37.7h7.8l3.3-15.7h0.3c3.1,0,5.9-0.8,8.2-2.2c2.4-1.4,4.2-3.3,5.5-5.6
	c1.3-2.3,1.9-4.6,1.9-7C53.9,30,53.4,28.2,52.5,26.6z M46.6,37.2c-0.8,2.1-2,3.8-3.4,5.2c-1.5,1.4-3.1,2.2-4.8,2.3l4-20.9
	c1.6,0.2,2.9,0.9,3.8,2c1.1,1.4,1.7,3.2,1.7,5.4C47.9,33.2,47.4,35.2,46.6,37.2z"/>
<path class="st0" d="M54.3,60.7c-1.5-1.4-2.2-3.6-2.2-6.6c0-2.5,0.5-5.3,1.5-8.4c1-3,2.6-5.7,4.8-7.9c2.2-2.2,5-3.3,8.4-3.3
	c4,0,6,1.8,6,5.3c0,2.1-0.6,3.9-1.7,5.7c-1.2,1.7-2.7,3.1-4.6,4.2c-1.9,1-4,1.6-6.1,1.8c-0.1,1.1-0.1,1.8-0.1,2.2
	c0,1.8,0.3,3,0.9,3.7c0.6,0.6,1.6,1,3,1c2,0,3.6-0.5,5-1.4c1.4-0.9,2.9-2.3,4.6-4.2h1.8c-4,6.8-9,10.2-14.9,10.2
	C57.9,62.8,55.8,62.1,54.3,60.7z M64.5,47.3c1.2-0.9,2.2-2,2.9-3.4c0.7-1.4,1.1-2.8,1.1-4.3c0-1.5-0.5-2.3-1.4-2.3
	c-1.3,0-2.6,1.2-3.8,3.5c-1.2,2.3-2.1,4.9-2.7,7.9C62,48.6,63.3,48.1,64.5,47.3z"/>
<path class="st0" d="M75,60.6c-1.4-1.4-2.1-3.7-2.1-6.7c0-2.7,0.5-5.6,1.6-8.6c1.1-3,2.7-5.5,4.8-7.6c2.1-2.1,4.6-3.1,7.6-3.1
	c1.5,0,2.6,0.3,3.3,0.8c0.7,0.5,1.1,1.2,1.1,2v0.4l0.6-2.9h7.8l-3.9,18.7c-0.1,0.6-0.2,1.1-0.2,1.8c0,1.6,0.7,2.4,2.2,2.4
	c1,0,1.9-0.5,2.6-1.4c0.7-1,1.3-2.2,1.8-3.7h2.3c-1.3,4-3,6.7-5,8.1c-2,1.4-3.9,2.1-5.9,2.1c-1.5,0-2.7-0.4-3.7-1.3
	c-0.9-0.9-1.5-2.1-1.7-3.8c-1,1.5-2.2,2.7-3.5,3.7c-1.3,0.9-2.8,1.4-4.6,1.4C78.1,62.8,76.3,62.1,75,60.6z M86.3,56.1
	c0.9-0.9,1.5-2,1.8-3.5l2.6-12.4c0-0.5-0.2-0.9-0.5-1.4c-0.4-0.5-0.9-0.7-1.7-0.7c-1.4,0-2.7,0.9-3.9,2.6c-1.2,1.7-2.1,3.8-2.7,6.2
	c-0.7,2.4-1,4.5-1,6.4c0,1.8,0.3,3,0.8,3.5c0.5,0.5,1.2,0.8,1.9,0.8C84.5,57.4,85.4,57,86.3,56.1z"/>
<path class="st0" d="M103.7,60.7c-1.5-1.4-2.2-3.6-2.2-6.6c0-2.5,0.5-5.3,1.5-8.4c1-3,2.6-5.7,4.8-7.9c2.2-2.2,5-3.3,8.3-3.3
	c2.2,0,3.7,0.5,4.6,1.4c0.9,1,1.4,2.2,1.4,3.6c0,1.3-0.3,2.3-0.8,3c-0.5,0.7-1.2,1-2.1,1c-0.6,0-1.2-0.2-1.9-0.7
	c0.4-1.2,0.7-2.3,0.7-3.2c0-0.7-0.1-1.2-0.4-1.7c-0.3-0.4-0.6-0.6-1.1-0.6c-1.1,0-2.2,0.9-3.3,2.7c-1.1,1.8-2,4-2.7,6.5
	c-0.7,2.6-1,4.9-1,6.9c0,1.8,0.3,3,0.9,3.7c0.6,0.6,1.6,1,3,1c2,0,3.6-0.5,5-1.4c1.4-0.9,2.9-2.3,4.6-4.2h1.8
	c-4,6.8-9,10.2-14.9,10.2C107.2,62.8,105.1,62.1,103.7,60.7z"/>
<path class="st0" d="M137.4,61c-0.9-1.2-1.3-2.7-1.3-4.5c0-0.8,0.1-1.6,0.3-2.6c0.2-1,0.4-1.9,0.6-2.8c0.2-0.9,0.3-1.5,0.4-1.8
	c0.3-1.3,0.6-2.5,0.8-3.8c0.3-1.2,0.4-2.3,0.4-3c0-1.9-0.7-2.8-2-2.8c-0.9,0-1.7,0.4-2.4,1.2c-0.7,0.8-1.3,1.9-1.7,3.2l-3.8,18.3
	h-7.8l7.9-37.4l8-1.1l-2.9,13.8c1.8-2,3.9-3,6.3-3c1.8,0,3.3,0.5,4.4,1.5c1.1,1,1.6,2.6,1.6,4.7c0,1.1-0.1,2.2-0.4,3.5
	c-0.3,1.3-0.6,2.9-1.1,4.8c-0.3,1.1-0.6,2.2-0.8,3.3c-0.2,1.1-0.4,1.9-0.4,2.6c0,0.7,0.2,1.3,0.5,1.7c0.3,0.4,0.9,0.6,1.7,0.6
	c0.9,0,1.5-0.1,1.8-0.3c-0.2,1.9-0.9,3.3-2,4.2c-1.1,1-2.4,1.4-4,1.4C139.6,62.8,138.2,62.2,137.4,61z"/>
<path class="st0" d="M54.8,134.5c-2-1.7-3-4-3-6.8c0-1.7,0.4-3.4,1.2-4.8c0.8-1.5,1.9-2.6,3.3-3.5c1.4-0.8,2.9-1.3,4.6-1.3
	c1.7,0,3.1,0.4,4.2,1.3c1.1,0.9,1.6,2,1.6,3.4c0,1.1-0.2,2-0.7,2.6c-0.4-0.6-1-1-1.7-1.3c-0.7-0.3-1.4-0.5-2.2-0.5
	c-1.4,0-2.5,0.5-3.3,1.4c-0.9,0.9-1.3,2.1-1.3,3.6c0,1.5,0.4,2.7,1.3,3.6c0.8,0.9,1.9,1.4,3.2,1.4c1.6,0,2.9-0.7,4.1-2.1
	c1.1-1.4,2-3.5,2.6-6.3l3.4-15.2h-0.3c-1.2,1.7-2.7,3.1-4.4,4c-1.7,0.9-3.7,1.4-5.7,1.4c-2.6,0-4.9-0.7-6.9-2.1
	c-2-1.4-3.5-3.5-4.6-6.1c-1.1-2.6-1.6-5.7-1.6-9.2c0-5.1,1.1-9.7,3.3-13.8c2.2-4.2,5.2-7.4,9-9.8c3.8-2.4,8-3.6,12.6-3.6
	c3.8,0,6.9,0.8,9.1,2.5c2.2,1.7,3.4,4,3.4,7c0,2-0.5,3.6-1.4,4.8c-0.9,1.2-2.2,1.8-3.7,1.8c-0.9,0-1.7-0.2-2.4-0.6
	c-0.7-0.4-1.4-0.9-1.9-1.6c0.8-0.6,1.5-1.4,2.1-2.7c0.6-1.2,0.8-2.4,0.8-3.7c0-1.4-0.4-2.4-1.2-3.2c-0.8-0.8-1.9-1.1-3.4-1.1
	c-2.6,0-5.2,1.2-7.6,3.5c-2.4,2.4-4.4,5.5-5.9,9.3c-1.5,3.8-2.2,7.8-2.2,12c0,3.4,0.5,6.1,1.6,7.9c1.1,1.8,2.6,2.7,4.7,2.7
	c2.4,0,4.6-1.3,6.5-3.9c1.9-2.6,3.4-6.4,4.5-11.4l8,0.1l-5,23.1c-1.4,6.8-3.5,11.9-6.1,15.1c-2.6,3.2-6.1,4.8-10.3,4.8
	C59.5,137.1,56.8,136.2,54.8,134.5z"/>
<path class="st0" d="M87.8,121.2c-1.3-1.4-2-3.4-2-6.2c0-1.1,0.2-2.6,0.5-4.5L93.6,76l10-1.4l-7.8,37.2c-0.2,0.7-0.3,1.4-0.3,2.2
	c0,0.9,0.2,1.6,0.6,2c0.4,0.4,1.1,0.6,2.1,0.6c1.3,0,2.5-0.6,3.7-1.7c1.1-1.1,1.9-2.6,2.4-4.4h2.8c-1.7,5-3.8,8.3-6.4,10.1
	c-2.6,1.8-5.2,2.7-7.8,2.7C90.9,123.2,89.1,122.5,87.8,121.2z"/>
<path class="st0" d="M135.7,121.2c-1.3-1.4-2-3.4-2-6.2c0-1.1,0.2-2.6,0.5-4.5l4.6-22.1h9.8l-4.9,23.4c-0.1,0.6-0.2,1.1-0.2,1.7
	c0,2,0.7,3,2,3c1.3,0,2.4-0.5,3.3-1.6c0.9-1.1,1.6-2.6,2.2-4.4l4.6-22.1h9.8l-4.9,23.4c-0.2,1.1-0.3,2-0.3,2.5
	c0,1.5,0.8,2.3,2.3,2.3c2.1,0,4-1.3,5.8-4c1.8-2.7,3.2-5.8,4.3-9.5c1.1-3.7,1.6-6.8,1.6-9.5c-0.1,0.2-0.4,0.4-0.9,0.5
	c-0.5,0.1-0.9,0.2-1.3,0.2c-0.8,0-1.4-0.4-1.8-1.1c-0.4-0.7-0.6-1.5-0.6-2.4c0-1.1,0.3-2,1.1-2.7c0.7-0.7,1.8-1,3.2-1
	c1.5,0,2.6,0.6,3.3,1.7c0.7,1.1,1,2.6,1,4.3c0,4.1-0.7,8.6-2.1,13.3c-1.4,4.7-3.6,8.7-6.4,12c-2.9,3.3-6.5,5-10.8,5
	c-2.2,0-4-0.5-5.4-1.4c-1.4-1-2.3-2.4-2.7-4.3c-2.5,3.9-5.7,5.8-9.6,5.8C138.8,123.2,137,122.5,135.7,121.2z"/>
<path class="st0" d="M142,94.8c-1.6,1.1-3.3,2.1-5.3,2.9c-1.9,0.8-3.5,1.2-5,1.2c-0.4,0-0.6,0-0.6-0.1v-0.1c0-7.3-3-11-8.8-11
	c-4.3,0-7.8,1.4-10.7,4.2c-2.8,2.8-4.9,6.1-6.1,9.9c-1.3,3.8-1.9,7.3-1.9,10.4c0,3.8,1,6.5,2.9,8.3c1.9,1.7,4.6,2.6,7.9,2.6
	c2.8,0,5.3-0.8,7.7-2.5c2.4-1.7,4.3-4.1,5.8-7.2c1.5-3.1,2.4-6.8,2.8-11c2.5-0.4,4.8-1.1,6.9-2.1c2.1-1,3.8-2.2,5.1-3.6L142,94.8z
	 M123.2,109.8c-0.8,2.2-1.8,3.9-2.8,5.2c-1.1,1.3-2.2,1.9-3.3,1.9c-1.3,0-2.2-0.4-2.7-1.1c-0.5-0.8-0.7-2.2-0.7-4.4
	c0-2.3,0.4-5.1,1.3-8.1c0.5-1.9,1.2-3.7,1.9-5.2c2.9,6.8,8.1,4.6,8.1,4.6C124.6,105.2,124,107.7,123.2,109.8z M119.8,93.3
	c0.9-0.9,1.9-1.4,2.8-1.4c0.9,0,1.5,0.3,1.9,0.9c0.4,0.6,0.6,1.6,0.7,3.1C122.2,96.9,120.5,94.6,119.8,93.3z"/>
<path class="st0" d="M210,23.4c0,0-13.1-10-26.3,3.5l-0.5-1.2c9.8-5.2,8.4-12.4,8.4-12.4c-8,4.1-8.9,9-8.9,11.2l-1.7-4.7
	c2.1-3.1-1.5-2.6-1.5-2.6c-3.9,4.5-0.7,4.5-0.7,4.5l0.7,1.3c-1.9-1.7-5.6-3.5-12.6-2.2c0,0,3.2,6.5,14,4.7l0.4,0.8l1.2,0.3
	c-3.9-0.9-16.8-2.1-22.1,17.7c0,0-5.6,21.2,23.5,29.1c0,0,14.4,3,19.3,0.3C203.4,73.6,233.6,44.8,210,23.4z"/>
<path class="st1" d="M205.6,28.1c0,0,0.4,3.8,4.9,5c0,0,1.5,0.7,0,1.5c0,0-3.3,0.4-4.9,4.3c0,0-0.2,1.4-0.7,1.3c0,0-0.8,0.2-0.8-0.9
	c0,0-0.7-3.6-4.6-4.7c0,0-1.1-0.1-0.9-0.9c0,0-0.3-0.4,1.8-0.9c0,0,2.9-1,3.8-4.6c0,0,0-1.1,1.1-0.8
	C205.2,27.3,205.4,27.3,205.6,28.1z"/>
<path class="st1" d="M203.5,41.7c0,0,0.2,2.3,2.8,2.9c0,0,0.9,0.4,0,0.9c0,0-1.9,0.2-2.8,2.5c0,0-0.1,0.8-0.4,0.8
	c0,0-0.5,0.1-0.5-0.5c0,0-0.4-2.1-2.7-2.8c0,0-0.6,0-0.5-0.5c0,0-0.2-0.3,1-0.5c0,0,1.7-0.6,2.2-2.7c0,0,0-0.6,0.6-0.4
	C203.3,41.3,203.4,41.3,203.5,41.7z"/>
<path class="st1" d="M195.4,34.5c0,0,0.3,2.8,3.5,3.6c0,0,1.1,0.5,0,1.1c0,0-2.4,0.3-3.5,3.1c0,0-0.1,1-0.5,0.9c0,0-0.6,0.1-0.6-0.6
	c0,0-0.5-2.6-3.3-3.4c0,0-0.8,0-0.6-0.7c0,0-0.2-0.3,1.3-0.7c0,0,2.1-0.7,2.7-3.3c0,0,0-0.8,0.8-0.6C195.1,34,195.3,34,195.4,34.5z"
	/>
</svg>
