<svg width="52" height="53" viewBox="0 0 52 53" fill="none" xmlns="http://www.w3.org/2000/svg">
<path d="M43.2965 8.72526C43.2965 8.72526 31.9559 0.197212 20.4775 11.6909L20.0871 10.6247C28.5569 6.21253 27.3947 0 27.3947 0C20.4156 3.54371 19.6378 7.67052 19.7162 9.61294L18.2424 5.59273C20.0298 2.92588 16.9219 3.38503 16.9219 3.38503C13.5677 7.25052 16.3031 7.22082 16.3031 7.22082L16.9053 8.31272C15.2738 6.83843 12.0563 5.31556 5.9743 6.43563C5.9743 6.43563 8.78142 12.0384 18.0966 10.4723L18.4676 11.1449L19.504 11.4265C16.1422 10.6777 4.97782 9.59391 0.381479 26.611C0.381479 26.611 -4.51645 44.7467 20.7882 51.4936C20.7882 51.4936 33.2432 54.0535 37.5105 51.7382C37.5103 51.7382 63.7747 27.1066 43.2965 8.72526Z" fill="#EDC1BE"/>
<path d="M39.4265 12.7626C39.4265 12.7626 39.7805 16.0588 43.6398 17.0143C43.6398 17.0143 44.9184 17.6149 43.6398 18.2676C43.6398 18.2676 40.7854 18.6223 39.4265 21.9729C39.4265 21.9729 39.2899 23.1718 38.8274 23.089C38.8274 23.089 38.1479 23.2521 38.0936 22.3251C38.0936 22.3251 37.4686 19.2464 34.0976 18.2909C34.0976 18.2909 33.1728 18.2365 33.3355 17.5011C33.3355 17.5011 33.064 17.1204 34.8569 16.7114C34.8569 16.7114 37.3317 15.8388 38.1454 12.7602C38.1454 12.7602 38.1454 11.833 39.0704 12.1049C39.0728 12.1102 39.2742 12.1128 39.4265 12.7626Z" fill="#FAFAFA"/>
<path d="M37.639 24.4484C37.639 24.4484 37.8458 26.3802 40.1062 26.9394C40.1062 26.9394 40.8553 27.2915 40.1062 27.6748C40.1062 27.6748 38.4347 27.8817 37.639 29.8447C37.639 29.8447 37.5591 30.5463 37.2878 30.4997C37.2878 30.4997 36.8902 30.5955 36.859 30.0517C36.859 30.0517 36.4923 28.2471 34.5187 27.6903C34.5187 27.6903 33.9763 27.6591 34.0719 27.2268C34.0719 27.2268 33.9116 27.0041 34.963 26.7634C34.963 26.7634 36.4122 26.2533 36.8903 24.4484C36.8903 24.4484 36.8903 23.9048 37.4327 24.0653C37.4325 24.0651 37.5488 24.0677 37.639 24.4484Z" fill="#FAFAFA"/>
<path d="M30.6179 18.2909C30.6179 18.2909 30.8711 20.6653 33.6506 21.3517C33.6506 21.3517 34.5702 21.784 33.6506 22.2528C33.6506 22.2528 31.5969 22.5065 30.6179 24.9199C30.6179 24.9199 30.5197 25.7822 30.1863 25.7252C30.1863 25.7252 29.6981 25.8417 29.6568 25.1764C29.6568 25.1764 29.2074 22.9597 26.7793 22.2736C26.7793 22.2736 26.1128 22.2348 26.2316 21.7041C26.2316 21.7041 26.0353 21.4297 27.3269 21.1342C27.3269 21.1342 29.107 20.5077 29.6958 18.2912C29.6958 18.2912 29.6958 17.6231 30.3623 17.8199C30.3646 17.8221 30.5094 17.8249 30.6179 18.2909Z" fill="#FAFAFA"/>
</svg>
