<?xml version="1.0" encoding="utf-8"?>
<!-- Generator: Adobe Illustrator 23.0.6, SVG Export Plug-In . SVG Version: 6.00 Build 0)  -->
<svg version="1.1" id="Capa_1" xmlns="http://www.w3.org/2000/svg" xmlns:xlink="http://www.w3.org/1999/xlink" x="0px" y="0px"
	 viewBox="0 0 755.25 727" style="enable-background:new 0 0 755.25 727;" xml:space="preserve">
<style type="text/css">
	.st0{fill:#FFFFFF;}
	.st1{fill:#EDC1BF;}
	.st2{fill:#020203;}
</style>
<path class="st0" d="M155.92,493.76l38-12l62-6c0,0,75,12,81,11s86-15,86-15s13-10,13,18c0,0,79-7,81-7s9,28,9,28l27-9l23,15l-4,29
	l9,27l-9,21l-142,60l-137-18l-110-27l-27,9V493.76z"/>
<polygon class="st1" points="354.92,210.76 349.92,418.76 553.92,409.76 544.92,219.76 "/>
<path class="st1" d="M149.92,455.76c0,0-66-14-66-12s10,199,10,199l52-18L149.92,455.76z"/>
<g id="shopping_bag">
	<path class="st2" d="M562.51,210.52c-0.23-4.83-4.2-8.64-9.04-8.68h-36.15v-27.12c0-34.94-28.33-63.27-63.27-63.27
		c-34.94,0-63.27,28.33-63.27,63.27v27.12h-36.15c-4.84,0.03-8.81,3.84-9.04,8.68l-9.04,198.84c-0.09,2.45,0.83,4.83,2.53,6.6
		c1.69,1.79,4.05,2.8,6.51,2.8h216.92c2.46,0,4.82-1.01,6.51-2.8c1.7-1.76,2.62-4.15,2.53-6.6L562.51,210.52z M508.28,256.07
		c4.99,0,9.04,4.05,9.04,9.04c0,4.99-4.05,9.04-9.04,9.04c-4.99,0-9.04-4.05-9.04-9.04C499.24,260.12,503.29,256.07,508.28,256.07z
		 M408.86,174.73c0-24.96,20.23-45.19,45.19-45.19s45.19,20.23,45.19,45.19v27.12h-90.38V174.73z M399.82,256.07
		c4.99,0,9.04,4.05,9.04,9.04c0,4.99-4.05,9.04-9.04,9.04c-4.99,0-9.04-4.05-9.04-9.04C390.78,260.12,394.83,256.07,399.82,256.07z
		 M355.08,400.69l8.22-180.77h27.48v19.7c-14.12,4.99-21.52,20.48-16.53,34.6c4.99,14.12,20.48,21.52,34.6,16.53
		c14.12-4.99,21.52-20.48,16.53-34.6c-2.73-7.72-8.8-13.8-16.53-16.53v-19.7h90.38v19.7c-14.12,4.99-21.52,20.48-16.53,34.6
		c4.99,14.12,20.48,21.52,34.6,16.53c14.12-4.99,21.52-20.48,16.53-34.6c-2.73-7.72-8.8-13.8-16.53-16.53v-19.7h27.48l8.22,180.77
		H355.08z"/>
	<path class="st2" d="M544.44,165.69h18.08v-18.08h18.08v-18.08h-18.08v-18.08h-18.08v18.08h-18.08v18.08h18.08V165.69z"/>
	<path class="st2" d="M625.78,174.73H607.7v-18.08h-18.08v18.08h-18.08v18.08h18.08v18.08h18.08v-18.08h18.08V174.73z"/>
	<path class="st2" d="M345.59,165.69h18.08v-18.08h18.08v-18.08h-18.08v-18.08h-18.08v18.08h-18.08v18.08h18.08V165.69z"/>
	<path class="st2" d="M300.4,210.88h18.08v-18.08h18.08v-18.08h-18.08v-18.08H300.4v18.08h-18.08v18.08h18.08V210.88z"/>
	<path class="st2" d="M589.63,529.67c-0.03-17.21-13.98-31.15-31.18-31.18c-2.97-0.01-5.92,0.42-8.77,1.27L535.22,504
		c0.1-0.48,0.17-0.96,0.18-1.45c-0.03-17.21-13.98-31.15-31.18-31.18c-2.97-0.01-5.92,0.42-8.77,1.27l-41.4,12.2v-0.36
		c-0.03-17.21-13.98-31.15-31.18-31.18c-2.97-0.01-5.92,0.42-8.77,1.27l-86.59,25.49l-79.54-15.91c-0.6-0.11-1.2-0.17-1.81-0.18
		h-54.23c-1.15-0.02-2.28,0.2-3.34,0.63l-32.81,13.11v-13.74c-0.03-3.87-2.49-7.31-6.15-8.59l-54.23-18.08
		c-2.76-0.91-5.78-0.44-8.13,1.27c-2.39,1.67-3.81,4.41-3.8,7.32v198.84c-0.01,2.92,1.41,5.65,3.8,7.32
		c1.51,1.14,3.35,1.74,5.24,1.72c0.98-0.02,1.95-0.17,2.89-0.45l54.23-18.08c3.66-1.28,6.12-4.71,6.15-8.59v-9.04h25.67l107.01,35.7
		c0.94,0.28,1.91,0.43,2.89,0.45h135.57c1.02,0,2.03-0.18,2.98-0.54l138.92-48.99c12.45-4.4,20.78-16.17,20.79-29.37
		c-0.04-8.56-3.64-16.71-9.94-22.51C585.98,546.48,589.58,538.27,589.63,529.67L589.63,529.67z M137.71,620.14l-36.15,12.02V458.44
		l36.15,12.02V620.14z M500.6,489.99c1.17-0.37,2.39-0.55,3.62-0.54c7.08-0.16,12.94,5.45,13.1,12.52c0.06,2.8-0.79,5.54-2.44,7.81
		L408.86,534v-15.82c0-0.36-0.18-0.72-0.18-1.17L500.6,489.99z M419.26,471.91c1.17-0.37,2.39-0.55,3.62-0.54
		c7.24,0.01,13.1,5.87,13.11,13.11c-0.04,2.2-0.67,4.35-1.81,6.24l-37.87,11.12l-8.13-8.13c-1.27-1.24-2.87-2.09-4.61-2.44
		l-17.9-3.62L419.26,471.91z M562.87,587.15L425.4,635.68H292.81l-107.01-35.7c-0.94-0.28-1.91-0.43-2.89-0.45h-27.12V497.22
		l37.87-15.18h51.61l132.05,26.39l13.47,13.47v14.37h-117.5c-4.99,0.02-9.03,4.07-9.01,9.07c0.01,3.25,1.76,6.24,4.58,7.84
		l81.35,45.19c1.34,0.79,2.87,1.19,4.43,1.17h72.31c0.86,0.02,1.71-0.1,2.53-0.36l125.36-36.88c3.94-1.2,8.21-0.42,11.48,2.08
		c5.78,4.32,6.96,12.51,2.64,18.29C567.41,584.73,565.3,586.28,562.87,587.15z M563.24,541.87l-6.15,1.9
		c-2.51,0.08-5,0.48-7.41,1.18l-124.01,36.51h-68.69l-44.74-24.86l6.33-2.26h81.25c0.67-0.07,1.34-0.19,1.99-0.36v0.09l121.02-27.57
		l32-9.4c1.17-0.37,2.39-0.55,3.62-0.54c7.24,0,13.11,5.86,13.11,13.1C571.56,535.05,568.26,539.9,563.24,541.87L563.24,541.87z"/>
</g>
</svg>
