<?xml version="1.0" encoding="utf-8"?>
<!-- Generator: Adobe Illustrator 23.0.6, SVG Export Plug-In . SVG Version: 6.00 Build 0)  -->
<svg version="1.1" id="Capa_1" xmlns="http://www.w3.org/2000/svg" xmlns:xlink="http://www.w3.org/1999/xlink" x="0px" y="0px"
	 viewBox="0 0 814 559.5" style="enable-background:new 0 0 814 559.5;" xml:space="preserve">
<style type="text/css">
	.st0{fill:#EDC1BF;}
	.st1{filter:url(#Adobe_OpacityMaskFilter);}
	.st2{fill:#FFFFFF;}
	.st3{mask:url(#mask0_outline_ins_1_);}
	.st4{fill:#020203;}
	.st5{fill:#121212;}
	.st6{filter:url(#Adobe_OpacityMaskFilter_1_);}
	.st7{mask:url(#mask1_outline_ins_1_);}
	.st8{filter:url(#Adobe_OpacityMaskFilter_2_);}
	.st9{mask:url(#mask2_outline_ins_1_);}
</style>
<g>
	<path class="st0" d="M97.77,92.85l8.06,333.38l393,1v-17l233.73,8.73l-7.73-108.73l-25.02-50.14l-32.98-102.86l-42-23h-126l-8-41
		C490.82,93.23,122.71,75.48,97.77,92.85z"/>
	<g id="Canvas" transform="translate(171 321)">
		<g>
			<g>
				<defs>
					<filter id="Adobe_OpacityMaskFilter" filterUnits="userSpaceOnUse" x="-89.96" y="-261.6" width="443.16" height="392.99">
						<feColorMatrix  type="matrix" values="1 0 0 0 0  0 1 0 0 0  0 0 1 0 0  0 0 0 1 0"/>
					</filter>
				</defs>
				<mask maskUnits="userSpaceOnUse" x="-89.96" y="-261.6" width="443.16" height="392.99" id="mask0_outline_ins_1_">
					<g transform="translate(-171 -321)" class="st1">
						<path class="st2" d="M-73.23-228.15c0-9.24,7.49-16.72,16.72-16.72h376.27c9.24,0,16.72,7.49,16.72,16.72v326.1
							c0,9.24-7.49,16.72-16.72,16.72H-56.51c-9.24,0-16.72-7.49-16.72-16.72V-228.15z"/>
					</g>
				</mask>
				<g class="st3">
					<g transform="translate(-171 -321)">
						<path id="path1_stroke_2x" class="st4" d="M-56.51-228.15h376.27v-33.45H-56.51V-228.15z M319.76-228.15v326.1h33.45v-326.1
							H319.76z M319.76,97.95H-56.51v33.45h376.27V97.95z M-56.51,97.95v-326.1h-33.45v326.1H-56.51z M-56.51,97.95h-33.45
							c0,18.47,14.97,33.45,33.45,33.45V97.95z M319.76,97.95v33.45c18.47,0,33.45-14.97,33.45-33.45H319.76z M319.76-228.15h33.45
							c0-18.47-14.97-33.45-33.45-33.45V-228.15z M-56.51-261.6c-18.47,0-33.45,14.97-33.45,33.45h33.45V-261.6z"/>
					</g>
				</g>
			</g>
			<g>
				<g transform="translate(-170 -289)">
					<path id="path2_stroke" class="st4" d="M-64.87,22.7h392.99V5.98H-64.87V22.7z"/>
				</g>
			</g>
			<g>
				<g transform="translate(-147 -286)">
					<path id="path3_fill" class="st5" d="M152.53,60.33c0,6.93-5.62,12.54-12.54,12.54c-6.93,0-12.54-5.62-12.54-12.54
						s5.62-12.54,12.54-12.54C146.91,47.78,152.53,53.4,152.53,60.33z"/>
				</g>
			</g>
			<g>
				<g transform="translate(-143 -286)">
					<path id="path4_fill" class="st5" d="M160.89,47.78H311.4v25.08H160.89V47.78z"/>
				</g>
			</g>
			<g>
				<g transform="translate(-165 -285)">
					<path id="path5_fill" class="st2" d="M77.27,106.31c0,27.71-22.46,50.17-50.17,50.17c-27.71,0-50.17-22.46-50.17-50.17
						c0-27.71,22.46-50.17,50.17-50.17C54.81,56.14,77.27,78.61,77.27,106.31z"/>
				</g>
				<g transform="translate(-165 -285)">
					<path id="path6_stroke" class="st4" d="M68.91,106.31c0,23.09-18.72,41.81-41.81,41.81v16.72c32.33,0,58.53-26.21,58.53-58.53
						H68.91z M27.1,148.12c-23.09,0-41.81-18.72-41.81-41.81h-16.72c0,32.33,26.21,58.53,58.53,58.53V148.12z M-14.7,106.31
						c0-23.09,18.72-41.81,41.81-41.81V47.78c-32.33,0-58.53,26.21-58.53,58.53H-14.7z M27.1,64.51c23.09,0,41.81,18.72,41.81,41.81
						h16.72c0-32.33-26.21-58.53-58.53-58.53V64.51z"/>
				</g>
			</g>
			<g>
				<g transform="translate(-162 -282)">
					<path id="path7_fill" class="st2" d="M52.19,106.31c0,13.85-11.23,25.08-25.08,25.08S2.02,120.17,2.02,106.31
						S13.25,81.23,27.1,81.23S52.19,92.46,52.19,106.31z"/>
				</g>
				<g transform="translate(-162 -282)">
					<path id="path8_stroke" class="st4" d="M43.83,106.31c0,9.24-7.49,16.72-16.72,16.72v16.72c18.47,0,33.45-14.97,33.45-33.45
						H43.83z M27.1,123.04c-9.24,0-16.72-7.49-16.72-16.72H-6.34c0,18.47,14.97,33.45,33.45,33.45V123.04z M10.38,106.31
						c0-9.24,7.49-16.72,16.72-16.72V72.87c-18.47,0-33.45,14.97-33.45,33.45H10.38z M27.1,89.59c9.24,0,16.72,7.49,16.72,16.72
						h16.72c0-18.47-14.97-33.45-33.45-33.45V89.59z"/>
				</g>
			</g>
			<g>
				<defs>
					<filter id="Adobe_OpacityMaskFilter_1_" filterUnits="userSpaceOnUse" x="311.4" y="-220.2" width="256.54" height="192.73">
						<feColorMatrix  type="matrix" values="1 0 0 0 0  0 1 0 0 0  0 0 1 0 0  0 0 0 1 0"/>
					</filter>
				</defs>
				<mask maskUnits="userSpaceOnUse" x="311.4" y="-220.2" width="256.54" height="192.73" id="mask1_outline_ins_1_">
					<g transform="translate(-123 -316)" class="st6">
						<path class="st2" d="M328.12-203.06l110.63,2.7c36.24,0.88,67.78,25.02,78.11,59.76l28.66,96.41h-217.4V-203.06z"/>
					</g>
				</mask>
				<g class="st7">
					<g transform="translate(-123 -316)">
						<path id="path10_stroke_2x" class="st4" d="M328.12-203.06l0.41-16.72l-17.13-0.42v17.14H328.12z M545.52-44.19v16.72h22.42
							l-6.39-21.49L545.52-44.19z M328.12-44.19H311.4v16.72h16.72V-44.19z M327.71-186.35l110.63,2.7l0.82-33.44l-110.63-2.7
							L327.71-186.35z M500.83-135.84l28.66,96.41l32.06-9.53l-28.66-96.41L500.83-135.84z M545.52-60.92h-217.4v33.45h217.4V-60.92
							z M344.84-44.19v-158.87H311.4v158.87H344.84z M438.34-183.65c28.99,0.71,54.22,20.01,62.49,47.81l32.06-9.53
							c-12.4-41.7-50.25-70.65-93.73-71.72L438.34-183.65z"/>
					</g>
				</g>
			</g>
			<g>
				<g transform="matrix(6.12323e-17 1 -1 6.12323e-17 -110 -314)">
					<path id="path11_stroke" class="st4" d="M436.82-186.34v142.15h16.72v-142.15H436.82z"/>
				</g>
			</g>
			<g>
				<g transform="translate(-113 -297)">
					<path id="path12_stroke" class="st4" d="M411.74-44.19h100.34v-16.72H411.74V-44.19z"/>
				</g>
			</g>
			<g>
				<g transform="translate(-108 -292)">
					<path id="path13_fill" class="st2" d="M453.54,5.98c0-4.62,3.74-8.36,8.36-8.36h58.53c4.62,0,8.36,3.74,8.36,8.36v25.08
						c0,4.62-3.74,8.36-8.36,8.36h-58.53c-4.62,0-8.36-3.74-8.36-8.36V5.98z"/>
				</g>
				<defs>
					<filter id="Adobe_OpacityMaskFilter_2_" filterUnits="userSpaceOnUse" x="436.82" y="-19.11" width="108.7" height="75.25">
						<feColorMatrix  type="matrix" values="1 0 0 0 0  0 1 0 0 0  0 0 1 0 0  0 0 0 1 0"/>
					</filter>
				</defs>
				<mask maskUnits="userSpaceOnUse" x="436.82" y="-19.11" width="108.7" height="75.25" id="mask2_outline_ins_1_">
					<g transform="translate(-108 -292)" class="st8">
						<path class="st2" d="M453.54,5.98c0-4.62,3.74-8.36,8.36-8.36h58.53c4.62,0,8.36,3.74,8.36,8.36v25.08
							c0,4.62-3.74,8.36-8.36,8.36h-58.53c-4.62,0-8.36-3.74-8.36-8.36V5.98z"/>
					</g>
				</mask>
				<g class="st9">
					<g transform="translate(-108 -292)">
						<path id="path14_stroke_2x" class="st4" d="M461.91,14.34h58.53v-33.45h-58.53V14.34z M512.08,5.98v25.08h33.45V5.98H512.08z
							 M520.44,21.23h-58.53v34.92h58.53V21.23z M470.27,31.06V5.98h-33.45v25.08H470.27z M461.91,22.7c4.62,0,8.36,3.74,8.36,8.36
							h-33.45c0,13.85,11.23,25.08,25.08,25.08V22.7z M512.08,31.06c0-4.62,3.74-8.36,8.36-8.36v33.45
							c13.85,0,25.08-11.23,25.08-25.08H512.08z M520.44,14.34c-4.62,0-8.36-3.74-8.36-8.36h33.45c0-13.85-11.23-25.08-25.08-25.08
							V14.34z M461.91-19.11c-13.85,0-25.08,11.23-25.08,25.08h33.45c0,4.62-3.74,8.36-8.36,8.36V-19.11z"/>
					</g>
				</g>
			</g>
			<g>
				<g transform="matrix(0.583286 0.812267 -0.812267 0.583286 -99 -297)">
					<path id="path15_stroke" class="st4" d="M528.8-44.19l28.44,39.6l13.58-9.75l-28.44-39.6L528.8-44.19z"/>
				</g>
			</g>
			<g>
				<g transform="translate(-96 -293.5)">
					<path id="path16_fill" class="st4" d="M553.88-10.75l16.72-4.18v121.24h-16.72V-10.75z"/>
				</g>
			</g>
			<g>
				<g transform="translate(-123 -279)">
					<path id="path17_stroke" class="st4" d="M328.12,106.31h234.12V89.59H328.12V106.31z"/>
				</g>
			</g>
			<g>
				<g transform="translate(-116 -285)">
					<path class="st2" d="M486.99,106.31c0,27.71-22.46,50.17-50.17,50.17c-27.71,0-50.17-22.46-50.17-50.17
						c0-27.71,22.46-50.17,50.17-50.17C464.53,56.14,486.99,78.61,486.99,106.31z"/>
				</g>
				<g transform="translate(-116 -285)">
					<path class="st4" d="M478.63,106.31c0,23.09-18.72,41.81-41.81,41.81v16.72c32.33,0,58.53-26.21,58.53-58.53H478.63z
						 M436.82,148.12c-23.09,0-41.81-18.72-41.81-41.81h-16.72c0,32.33,26.21,58.53,58.53,58.53V148.12z M395.01,106.31
						c0-23.09,18.72-41.81,41.81-41.81V47.78c-32.33,0-58.53,26.21-58.53,58.53H395.01z M436.82,64.51
						c23.09,0,41.81,18.72,41.81,41.81h16.72c0-32.33-26.21-58.53-58.53-58.53V64.51z"/>
				</g>
			</g>
			<g>
				<g transform="matrix(6.12323e-17 1 -1 6.12323e-17 -117 -294)">
					<path id="path18_stroke" class="st4" d="M378.29-19.11V22.7h16.72v-41.81H378.29z"/>
				</g>
			</g>
			<g>
				<g transform="translate(-113 -282)">
					<path class="st2" d="M461.91,106.31c0,13.85-11.23,25.08-25.08,25.08c-13.85,0-25.08-11.23-25.08-25.08
						s11.23-25.08,25.08-25.08C450.68,81.23,461.91,92.46,461.91,106.31z"/>
				</g>
				<g transform="translate(-113 -282)">
					<path class="st4" d="M453.54,106.31c0,9.24-7.49,16.72-16.72,16.72v16.72c18.47,0,33.45-14.97,33.45-33.45H453.54z
						 M436.82,123.04c-9.24,0-16.72-7.49-16.72-16.72h-16.72c0,18.47,14.97,33.45,33.45,33.45V123.04z M420.1,106.31
						c0-9.24,7.49-16.72,16.72-16.72V72.87c-18.47,0-33.45,14.97-33.45,33.45H420.1z M436.82,89.59c9.24,0,16.72,7.49,16.72,16.72
						h16.72c0-18.47-14.97-33.45-33.45-33.45V89.59z"/>
				</g>
			</g>
		</g>
	</g>
	<path class="st2" d="M244.82,140.23l-6,19l-21,19l13.5,8.31l11.5,21.69l4,11c0,0,2-28,27-40
		C273.82,179.23,246.82,161.23,244.82,140.23z"/>
	<path class="st2" d="M327.35,193.81l-6,19l-21,19l13.5,8.31l11.5,21.69l4,11c0,0,2-28,27-40
		C356.35,232.81,329.35,214.81,327.35,193.81z"/>
	<g>
		<g>
			<path class="st4" d="M280.71,178.11l0.67-3.35c-0.31-0.07-31.48-6.74-31.48-44.57c0-1.89-1.53-3.42-3.42-3.42
				s-3.42,1.53-3.42,3.42c0,37.66-30.2,44.3-31.48,44.57l0.67,3.35l-0.67,3.35c0.32,0.06,31.48,6.74,31.48,44.57
				c0,1.89,1.53,3.42,3.42,3.42s3.42-1.53,3.42-3.42c0-37.66,30.2-44.3,31.48-44.57L280.71,178.11z M261.46,184
				c-5.33,4.27-11.32,10.97-14.97,21.09c-5.5-15.16-16.49-23.05-24.4-26.94c2.91-1.41,6.19-3.33,9.42-5.93
				c5.33-4.27,11.32-10.97,14.97-21.09c5.5,15.16,16.49,23.05,24.4,26.94C267.97,179.48,264.69,181.41,261.46,184z"/>
		</g>
	</g>
	<g>
		<g>
			<path class="st4" d="M362.87,232.88l0.67-3.35c-0.31-0.07-31.48-6.74-31.48-44.57c0-1.89-1.53-3.42-3.42-3.42
				s-3.42,1.53-3.42,3.42c0,37.66-30.2,44.3-31.48,44.57l0.67,3.35l-0.67,3.35c0.31,0.07,31.48,6.74,31.48,44.57
				c0,1.89,1.53,3.42,3.42,3.42s3.42-1.53,3.42-3.42c0-37.66,30.2-44.3,31.48-44.57L362.87,232.88z M343.61,238.77
				c-5.33,4.27-11.32,10.97-14.97,21.09c-5.5-15.16-16.49-23.05-24.4-26.94c2.91-1.41,6.19-3.33,9.42-5.93
				c5.33-4.27,11.32-10.97,14.97-21.09c5.5,15.16,16.49,23.05,24.4,26.94C350.13,234.25,346.85,236.18,343.61,238.77z"/>
		</g>
	</g>
</g>
</svg>
