<svg width="183" height="165" viewBox="0 0 183 165" fill="none" xmlns="http://www.w3.org/2000/svg">
<path d="M92.7585 42.1577C92.233 38.7298 47.0413 4.71467 33.9042 56.3966C33.9042 56.3966 28.9121 98.586 93.284 131.546C93.284 131.546 149.774 110.452 153.189 61.4066C156.605 12.3615 106.947 24.2273 92.7585 42.1577Z" fill="#EDC1BF"/>
<path d="M142.017 28.1667C127.238 20.2403 107.745 22.6478 95.4962 33.7093C83.1868 22.6583 63.6624 20.2746 48.9331 28.1667C36.0955 34.9987 28.1055 48.0801 28.1055 62.2821C28.1055 66.3481 28.7781 70.3903 29.9709 73.8709C36.2531 101.165 76.5893 137.081 95.4962 137.081C114.361 137.081 154.666 101.16 160.84 74.3324C162.164 70.3851 162.84 66.3533 162.84 62.2768C162.84 48.0801 154.858 34.9934 142.017 28.1667ZM151.665 71.7246C145.819 97.1252 107.73 127.507 95.4962 127.507C81.8809 127.507 44.7844 95.6802 39.1485 71.2631C38.1422 68.3178 37.6588 65.3039 37.6588 62.29C37.6588 51.6398 43.6913 41.7965 53.3997 36.6283C57.9215 34.1971 63.0633 32.9446 68.2604 32.9446C77.4091 32.9446 86.0244 36.8392 91.8993 43.6502L95.5409 47.8322L99.1273 43.6502C108.276 32.9947 125.084 29.9307 137.574 36.6283C147.283 41.7965 153.315 51.6398 153.315 62.29C153.294 65.2986 152.806 68.3125 151.665 71.7246ZM147.937 62.2821C147.937 64.7871 147.517 67.3052 146.684 69.7812C146.342 70.7885 145.433 71.3844 144.421 71.3844C144.167 71.3844 143.917 71.366 143.66 71.2789C142.406 70.8571 141.747 69.4912 142.17 68.2413C142.84 66.2531 143.2 64.236 143.2 62.2821C143.2 55.131 139.154 48.5415 132.643 45.0978C129.556 43.4445 126.213 42.5928 122.706 42.5928C121.371 42.5928 120.333 41.5407 120.333 40.2117C120.333 38.8828 121.371 37.836 122.706 37.836C126.986 37.836 131.082 38.8432 134.879 40.8736C142.929 45.1558 147.937 53.3511 147.937 62.2821Z" fill="#020203"/>
</svg>
