<svg width="202" height="206" viewBox="0 0 202 206" fill="none" xmlns="http://www.w3.org/2000/svg">
<path d="M144.67 96.629C144.67 96.629 137.376 132.526 109.552 137.654C109.552 137.654 140.618 144.671 144.67 177.868C144.67 177.868 145.21 146.56 179.519 137.654C179.519 137.654 147.101 133.335 144.67 96.629Z" fill="#EDC1BF"/>
<path d="M62.5463 44.8086C62.3869 43.289 54.9823 79.0857 27.6978 83.1341C27.6978 83.1341 58.224 89.3418 62.5463 125.238C62.5463 125.238 61.7359 89.6117 97.3948 83.1341C97.3948 83.1341 65.788 75.577 62.5463 44.8086Z" fill="#EDC1BF"/>
<path d="M96.679 83.0235L97.3489 79.674C97.0356 79.6093 65.9015 72.9509 65.9015 35.1921C65.9015 33.3055 64.3725 31.7751 62.4815 31.7751C60.5905 31.7751 59.0615 33.3055 59.0615 35.1921C59.0615 72.7808 28.8972 79.4068 27.6113 79.674L28.284 83.0235L27.614 86.3729C27.9274 86.4377 59.0615 93.0961 59.0615 130.855C59.0615 132.741 60.5905 134.272 62.4815 134.272C64.3725 134.272 65.9015 132.741 65.9015 130.855C65.9015 93.2661 96.0658 86.6401 97.3516 86.3756L96.679 83.0235ZM77.442 88.8992C72.1148 93.1609 66.1338 99.8517 62.4842 109.946C56.9922 94.8099 46.0162 86.937 38.1118 83.0613C41.0186 81.6578 44.29 79.7361 47.5263 77.1478C52.8536 72.8861 58.8345 66.198 62.4842 56.1011C67.9762 71.237 78.9521 79.11 86.8565 82.9884C83.9471 84.3919 80.6757 86.3135 77.442 88.8992Z" fill="#020203"/>
<path d="M178.749 137.686L179.419 134.337C179.105 134.272 147.971 127.613 147.971 89.8546C147.971 87.968 146.442 86.4377 144.551 86.4377C142.66 86.4377 141.131 87.968 141.131 89.8546C141.131 127.443 110.967 134.069 109.681 134.337L110.354 137.686L109.684 141.035C109.997 141.1 141.131 147.759 141.131 185.517C141.131 187.404 142.66 188.934 144.551 188.934C146.442 188.934 147.971 187.404 147.971 185.517C147.971 147.929 178.136 141.303 179.421 141.038L178.749 137.686ZM159.512 143.562C154.185 147.823 148.204 154.514 144.554 164.608C139.062 149.472 128.086 141.6 120.182 137.724C123.088 136.32 126.36 134.399 129.596 131.81C134.923 127.551 140.904 120.861 144.554 110.764C150.046 125.9 161.022 133.772 168.926 137.651C166.017 139.057 162.745 140.976 159.512 143.562Z" fill="#020203"/>
</svg>
