<svg width="153" height="153" viewBox="0 0 153 153" fill="none" xmlns="http://www.w3.org/2000/svg">
<path d="M20.356 107.572L31.0326 104.196L48.4524 102.508C48.4524 102.508 69.5248 105.884 71.2106 105.603C72.8964 105.321 95.3736 101.382 95.3736 101.382C95.3736 101.382 99.0261 98.5685 99.0261 106.447C99.0261 106.447 121.222 104.477 121.784 104.477C122.346 104.477 124.313 112.356 124.313 112.356L131.899 109.823L138.361 114.044L137.237 122.204L139.766 129.801L137.237 135.71L97.3403 152.592L58.8482 147.528L27.942 139.931L20.356 142.463V107.572Z" fill="white"/>
<path d="M76.2681 27.9433L74.8633 86.4693L132.18 83.937L129.651 30.4757L76.2681 27.9433Z" fill="#EDC1BF"/>
<path d="M18.6701 96.8802C18.6701 96.8802 0.126465 92.941 0.126465 93.5037C0.126465 94.0665 2.93611 149.497 2.93611 149.497L17.5463 144.433L18.6701 96.8802Z" fill="#EDC1BF"/>
<path d="M134.593 27.8758C134.529 26.5168 133.413 25.4447 132.054 25.4335H121.897V17.8026C121.897 7.97135 113.937 0 104.12 0C94.3031 0 86.3434 7.97135 86.3434 17.8026V25.4335H76.1865C74.8267 25.4419 73.7112 26.514 73.6466 27.8758L71.1067 83.8244C71.0814 84.5138 71.3399 85.1834 71.8175 85.6815C72.2923 86.1851 72.9554 86.4693 73.6466 86.4693H134.593C135.285 86.4693 135.948 86.1851 136.423 85.6815C136.9 85.1863 137.159 84.5138 137.133 83.8244L134.593 27.8758ZM119.357 40.6924C120.759 40.6924 121.897 41.832 121.897 43.2361C121.897 44.6401 120.759 45.7797 119.357 45.7797C117.955 45.7797 116.817 44.6401 116.817 43.2361C116.817 41.832 117.955 40.6924 119.357 40.6924ZM91.4232 17.8054C91.4232 10.7823 97.1072 5.09007 104.12 5.09007C111.133 5.09007 116.817 10.7823 116.817 17.8054V25.4363H91.4232V17.8054ZM88.8833 40.6924C90.2853 40.6924 91.4232 41.832 91.4232 43.2361C91.4232 44.6401 90.2853 45.7797 88.8833 45.7797C87.4813 45.7797 86.3434 44.6401 86.3434 43.2361C86.3434 41.832 87.4813 40.6924 88.8833 40.6924ZM76.313 81.3849L78.6225 30.5207H86.3434V36.0638C82.3762 37.4679 80.297 41.8264 81.6991 45.7994C83.1011 49.7724 87.4532 51.8546 91.4204 50.4505C95.3877 49.0465 97.4668 44.688 96.0648 40.7149C95.2978 38.5427 93.5923 36.832 91.4204 36.0638V30.5207H116.814V36.0638C112.847 37.4679 110.768 41.8264 112.17 45.7994C113.572 49.7724 117.924 51.8546 121.891 50.4505C125.858 49.0465 127.937 44.688 126.535 40.7149C125.768 38.5427 124.063 36.832 121.891 36.0638V30.5207H129.612L131.922 81.3849H76.313Z" fill="#020203"/>
<path d="M129.516 15.2618H134.596V10.1745H139.676V5.08726H134.596V0H129.516V5.08726H124.437V10.1745H129.516V15.2618Z" fill="#020203"/>
<path d="M152.37 17.8054H147.29V12.7181H142.21V17.8054H137.131V22.8927H142.21V27.9799H147.29V22.8927H152.37V17.8054Z" fill="#020203"/>
<path d="M73.6465 15.2618H78.7263V10.1745H83.8062V5.08726H78.7263V0H73.6465V5.08726H68.5667V10.1745H73.6465V15.2618Z" fill="#020203"/>
<path d="M60.9497 27.9771H66.0296V22.8899H71.1094V17.8026H66.0296V12.7153H60.9497V17.8026H55.8699V22.8899H60.9497V27.9771Z" fill="#020203"/>
<path d="M142.213 117.677C142.205 112.834 138.285 108.912 133.453 108.903C132.618 108.901 131.789 109.022 130.989 109.261L126.926 110.454C126.954 110.319 126.974 110.184 126.976 110.046C126.968 105.203 123.049 101.281 118.216 101.272C117.382 101.27 116.553 101.391 115.752 101.63L104.12 105.063V104.961C104.112 100.119 100.192 96.1964 95.3595 96.188C94.525 96.1852 93.6962 96.3062 92.8954 96.5454L68.5667 103.718L46.2187 99.2409C46.0502 99.21 45.8816 99.1931 45.7102 99.1903H30.4735C30.1504 99.1847 29.8329 99.2466 29.535 99.3675L20.3166 103.056V99.1903C20.3082 98.1014 19.617 97.1334 18.5887 96.7733L3.35193 91.686C2.57646 91.43 1.72795 91.5622 1.06768 92.0434C0.396174 92.5133 -0.00279491 93.2842 1.47415e-05 94.103V150.052C-0.00279491 150.873 0.396174 151.641 1.06768 152.111C1.49194 152.432 2.00891 152.601 2.53994 152.595C2.81528 152.59 3.08782 152.547 3.35193 152.469L18.5887 147.381C19.617 147.021 20.3082 146.056 20.3166 144.964V142.421H27.529L57.595 152.466C57.8591 152.545 58.1317 152.587 58.407 152.592H96.4974C96.784 152.592 97.0678 152.542 97.3347 152.441L136.366 138.656C139.864 137.418 142.205 134.106 142.208 130.392C142.196 127.983 141.185 125.69 139.415 124.058C141.188 122.407 142.199 120.096 142.213 117.677ZM15.2396 143.133L5.08267 146.515V97.6343L15.2396 101.016V143.133ZM117.199 106.512C117.528 106.408 117.87 106.357 118.216 106.36C120.205 106.315 121.852 107.893 121.897 109.883C121.914 110.67 121.675 111.441 121.211 112.08L91.4232 118.895V114.444C91.4232 114.342 91.3726 114.241 91.3726 114.114L117.199 106.512ZM94.3452 101.424C94.674 101.32 95.0167 101.27 95.3623 101.272C97.3965 101.275 99.043 102.924 99.0458 104.961C99.0345 105.58 98.8575 106.185 98.5372 106.717L87.8971 109.846L85.6128 107.558C85.256 107.209 84.8065 106.97 84.3176 106.872L79.2883 105.853L94.3452 101.424ZM134.695 133.85L96.0704 147.505H58.8172L28.7512 137.46C28.487 137.381 28.2145 137.339 27.9392 137.333H20.3194V108.546L30.9595 104.275H45.4601L82.5616 111.7L86.3462 115.49V119.534H53.3328C51.9308 119.539 50.7957 120.679 50.8013 122.086C50.8041 123 51.2958 123.842 52.0881 124.292L74.9446 137.007C75.3211 137.229 75.751 137.342 76.1893 137.336H96.5058C96.7475 137.342 96.9863 137.308 97.2167 137.235L132.438 126.858C133.545 126.52 134.745 126.74 135.664 127.443C137.288 128.659 137.619 130.963 136.406 132.589C135.97 133.169 135.377 133.605 134.695 133.85ZM134.799 121.109L133.071 121.644C132.365 121.667 131.666 121.779 130.989 121.976L96.1462 132.249H76.8467L64.2764 125.254L66.0549 124.618H88.8833C89.0715 124.598 89.2598 124.565 89.4424 124.517V124.542L123.445 116.785L132.436 114.14C132.764 114.036 133.107 113.985 133.453 113.988C135.487 113.988 137.136 115.637 137.136 117.674C137.136 119.19 136.209 120.555 134.799 121.109Z" fill="#020203"/>
</svg>
