<?xml version="1.0" encoding="utf-8"?>
<!-- Generator: Adobe Illustrator 23.0.6, SVG Export Plug-In . SVG Version: 6.00 Build 0)  -->
<svg version="1.1" id="Capa_1" xmlns="http://www.w3.org/2000/svg" xmlns:xlink="http://www.w3.org/1999/xlink" x="0px" y="0px"
	 viewBox="0 0 696.5 625.75" style="enable-background:new 0 0 696.5 625.75;" xml:space="preserve">
<style type="text/css">
	.st0{fill:#EDC1BF;}
	.st1{fill:#020203;}
</style>
<path class="st0" d="M353.04,159.88c-2-13-174-142-224,54c0,0-19,160,226,285c0,0,215-80,228-266S407.04,91.88,353.04,159.88"/>
<g>
	<path class="st1" d="M540.52,106.82c-56.25-30.06-130.44-20.93-177.06,21.02c-46.85-41.91-121.16-50.95-177.22-21.02
		c-48.86,25.91-79.27,75.52-79.27,129.38c0,15.42,2.56,30.75,7.1,43.95c23.91,103.51,177.43,239.72,249.39,239.72
		c71.8,0,225.2-136.23,248.7-237.97c5.04-14.97,7.61-30.26,7.61-45.72C619.77,182.34,589.39,132.71,540.52,106.82z M577.24,272.01
		c-22.25,96.33-167.22,211.55-213.78,211.55c-51.82,0-193.01-120.7-214.46-213.3c-3.83-11.17-5.67-22.6-5.67-34.03
		c0-40.39,22.96-77.72,59.91-97.32c17.21-9.22,36.78-13.97,56.56-13.97c34.82,0,67.61,14.77,89.97,40.6l13.86,15.86l13.65-15.86
		c34.82-40.41,98.79-52.03,146.33-26.63c36.95,19.6,59.91,56.93,59.91,97.32C583.44,247.64,581.58,259.07,577.24,272.01z
		 M563.05,236.2c0,9.5-1.6,19.05-4.77,28.44c-1.3,3.82-4.76,6.08-8.61,6.08c-0.97,0-1.92-0.07-2.9-0.4
		c-4.77-1.6-7.28-6.78-5.67-11.52c2.55-7.54,3.92-15.19,3.92-22.6c0-27.12-15.4-52.11-40.18-65.17c-11.75-6.27-24.47-9.5-37.82-9.5
		c-5.08,0-9.03-3.99-9.03-9.03c0-5.04,3.95-9.01,9.03-9.01c16.29,0,31.88,3.82,46.33,11.52
		C543.99,171.25,563.05,202.33,563.05,236.2z"/>
</g>
</svg>
