<?xml version="1.0" encoding="utf-8"?>
<!-- Generator: Adobe Illustrator 23.0.6, SVG Export Plug-In . SVG Version: 6.00 Build 0)  -->
<svg version="1.1" id="Capa_1" xmlns="http://www.w3.org/2000/svg" xmlns:xlink="http://www.w3.org/1999/xlink" x="0px" y="0px"
	 viewBox="0 0 747.75 763.25" style="enable-background:new 0 0 747.75 763.25;" xml:space="preserve">
<style type="text/css">
	.st0{fill:#EDC1BF;}
	.st1{fill:#020203;}
</style>
<path class="st0" d="M535.53,358.02c0,0-27,133-130,152c0,0,115,26,130,149c0,0,2-116,129-149
	C664.53,510.02,544.53,494.02,535.53,358.02z"/>
<path class="st0" d="M231.53,166.02c-0.59-5.63-28,127-129,142c0,0,113,23,129,156c0,0-3-132,129-156
	C360.53,308.02,243.53,280.02,231.53,166.02z"/>
<g>
	<g>
		<path class="st1" d="M357.88,307.61l2.48-12.41c-1.16-0.24-116.41-24.91-116.41-164.81c0-6.99-5.66-12.66-12.66-12.66
			c-7,0-12.66,5.67-12.66,12.66c0,139.27-111.66,163.82-116.42,164.81l2.49,12.41l-2.48,12.41c1.16,0.24,116.41,24.91,116.41,164.81
			c0,6.99,5.66,12.66,12.66,12.66c7,0,12.66-5.67,12.66-12.66c0-139.27,111.66-163.82,116.42-164.8L357.88,307.61z M286.67,329.38
			c-19.72,15.79-41.86,40.58-55.37,77.98c-20.33-56.08-60.96-85.25-90.22-99.61c10.76-5.2,22.87-12.32,34.85-21.91
			c19.72-15.79,41.86-40.57,55.37-77.98c20.33,56.08,60.96,85.25,90.22,99.62C310.75,312.68,298.64,319.8,286.67,329.38z"/>
	</g>
</g>
<g>
	<g>
		<path class="st1" d="M661.68,510.14l2.48-12.41c-1.16-0.24-116.41-24.91-116.41-164.81c0-6.99-5.66-12.66-12.66-12.66
			c-7,0-12.66,5.67-12.66,12.66c0,139.27-111.66,163.82-116.42,164.81l2.49,12.41l-2.48,12.41c1.16,0.24,116.41,24.91,116.41,164.81
			c0,6.99,5.66,12.66,12.66,12.66c7,0,12.66-5.67,12.66-12.66c0-139.27,111.66-163.82,116.42-164.8L661.68,510.14z M590.47,531.91
			c-19.72,15.79-41.86,40.58-55.37,77.98c-20.33-56.08-60.96-85.25-90.22-99.61c10.76-5.2,22.87-12.32,34.85-21.91
			c19.72-15.78,41.86-40.57,55.37-77.98c20.33,56.08,60.96,85.25,90.22,99.62C614.55,515.22,602.44,522.33,590.47,531.91z"/>
	</g>
</g>
</svg>
